<svg width="260" height="311" viewBox="0 0 260 311" fill="none" xmlns="http://www.w3.org/2000/svg">
<g filter="url(#filter0_f_55_4770)">
<rect x="2.5" y="54.0078" width="63.218" height="63.218" fill="url(#paint0_linear_55_4770)" stroke="url(#paint1_linear_55_4770)" stroke-width="3"/>
<path d="M3.56066 119.787H66.7787L90.6252 143.633H27.4072L3.56066 119.787Z" fill="url(#paint2_linear_55_4770)" stroke="url(#paint3_linear_55_4770)" stroke-width="3"/>
<rect x="26.9678" y="78.4761" width="66.218" height="66.218" fill="#550296"/>
<rect width="36.7845" height="65.6224" transform="matrix(0.707107 0.707107 0.00820296 0.999966 1 52.5078)" fill="url(#paint4_linear_55_4770)"/>
<path d="M1 52.5078H67.218L93.1859 78.4757H26.9679L1 52.5078Z" fill="#9527EC"/>
</g>
<g filter="url(#filter1_f_55_4770)">
<rect x="35.5605" y="87.0696" width="63.218" height="63.218" fill="url(#paint5_linear_55_4770)" stroke="url(#paint6_linear_55_4770)" stroke-width="3"/>
<path d="M36.6212 152.848H99.8392L123.686 176.695H60.4677L36.6212 152.848Z" fill="url(#paint7_linear_55_4770)" stroke="url(#paint8_linear_55_4770)" stroke-width="3"/>
<rect x="60.0283" y="111.538" width="66.218" height="66.218" fill="#550296"/>
<rect width="36.7845" height="65.6224" transform="matrix(0.707107 0.707107 0.00820296 0.999966 34.0605 85.5696)" fill="url(#paint9_linear_55_4770)"/>
<path d="M34.0605 85.5696H100.279L126.246 111.537H60.0284L34.0605 85.5696Z" fill="#9527EC"/>
</g>
<g filter="url(#filter2_f_55_4770)">
<rect x="68.6221" y="120.129" width="63.218" height="63.218" fill="url(#paint10_linear_55_4770)" stroke="url(#paint11_linear_55_4770)" stroke-width="3"/>
<path d="M69.6827 185.908H132.901L156.747 209.755H93.5293L69.6827 185.908Z" fill="url(#paint12_linear_55_4770)" stroke="url(#paint13_linear_55_4770)" stroke-width="3"/>
<rect x="93.0898" y="144.598" width="66.218" height="66.218" fill="#550296"/>
<rect width="36.7845" height="65.6224" transform="matrix(0.707107 0.707107 0.00820296 0.999966 67.1221 118.629)" fill="url(#paint14_linear_55_4770)"/>
<path d="M67.1221 118.629H133.34L159.308 144.597H93.0899L67.1221 118.629Z" fill="#9527EC"/>
</g>
<g filter="url(#filter3_f_55_4770)">
<rect x="101.683" y="153.189" width="63.218" height="63.218" fill="url(#paint15_linear_55_4770)" stroke="url(#paint16_linear_55_4770)" stroke-width="3"/>
<path d="M102.743 218.968H165.961L189.808 242.815H126.59L102.743 218.968Z" fill="url(#paint17_linear_55_4770)" stroke="url(#paint18_linear_55_4770)" stroke-width="3"/>
<rect x="126.15" y="177.658" width="66.218" height="66.218" fill="#550296"/>
<rect width="36.7845" height="65.6224" transform="matrix(0.707107 0.707107 0.00820296 0.999966 100.183 151.689)" fill="url(#paint19_linear_55_4770)"/>
<path d="M100.183 151.689H166.401L192.368 177.657H126.15L100.183 151.689Z" fill="#9527EC"/>
</g>
<g filter="url(#filter4_f_55_4770)">
<rect x="134.743" y="186.253" width="63.218" height="63.218" fill="url(#paint20_linear_55_4770)" stroke="url(#paint21_linear_55_4770)" stroke-width="3"/>
<path d="M135.804 252.032H199.022L222.868 275.878H159.65L135.804 252.032Z" fill="url(#paint22_linear_55_4770)" stroke="url(#paint23_linear_55_4770)" stroke-width="3"/>
<rect x="159.211" y="210.721" width="66.218" height="66.218" fill="#550296"/>
<rect width="36.7845" height="65.6224" transform="matrix(0.707107 0.707107 0.00820296 0.999966 133.243 184.753)" fill="url(#paint24_linear_55_4770)"/>
<path d="M133.243 184.753H199.461L225.429 210.721H159.211L133.243 184.753Z" fill="#9527EC"/>
</g>
<g filter="url(#filter5_f_55_4770)">
<rect x="167.804" y="219.313" width="63.218" height="63.218" fill="url(#paint25_linear_55_4770)" stroke="url(#paint26_linear_55_4770)" stroke-width="3"/>
<path d="M168.864 285.091H232.082L255.929 308.938H192.711L168.864 285.091Z" fill="url(#paint27_linear_55_4770)" stroke="url(#paint28_linear_55_4770)" stroke-width="3"/>
<rect x="192.271" y="243.781" width="66.218" height="66.218" fill="#550296"/>
<rect width="36.7845" height="65.6224" transform="matrix(0.707107 0.707107 0.00820296 0.999966 166.304 217.813)" fill="url(#paint29_linear_55_4770)"/>
<path d="M166.304 217.813H232.522L258.49 243.781H192.272L166.304 217.813Z" fill="#9527EC"/>
</g>
<g filter="url(#filter6_f_55_4770)">
<rect x="126.15" y="103.758" width="66.218" height="66.218" fill="url(#paint30_linear_55_4770)"/>
<rect width="36.7845" height="65.6224" transform="matrix(0.707107 0.707107 0.00820296 0.999966 100.183 77.7896)" fill="url(#paint31_linear_55_4770)"/>
<path d="M101.036 78.1431H166.254L191.515 103.404H126.297L101.036 78.1431Z" fill="url(#paint32_linear_55_4770)" stroke="#DE0186"/>
</g>
<rect x="131" y="7" width="42" height="57" fill="url(#paint33_linear_55_4770)"/>
<rect x="124" width="43" height="57" fill="url(#paint34_linear_55_4770)"/>
<defs>
<filter id="filter0_f_55_4770" x="0" y="51.5078" width="94.1855" height="94.1863" filterUnits="userSpaceOnUse" color-interpolation-filters="sRGB">
<feFlood flood-opacity="0" result="BackgroundImageFix"/>
<feBlend mode="normal" in="SourceGraphic" in2="BackgroundImageFix" result="shape"/>
<feGaussianBlur stdDeviation="0.5" result="effect1_foregroundBlur_55_4770"/>
</filter>
<filter id="filter1_f_55_4770" x="33.0605" y="84.5696" width="94.1855" height="94.1863" filterUnits="userSpaceOnUse" color-interpolation-filters="sRGB">
<feFlood flood-opacity="0" result="BackgroundImageFix"/>
<feBlend mode="normal" in="SourceGraphic" in2="BackgroundImageFix" result="shape"/>
<feGaussianBlur stdDeviation="0.5" result="effect1_foregroundBlur_55_4770"/>
</filter>
<filter id="filter2_f_55_4770" x="66.1221" y="117.629" width="94.1855" height="94.1863" filterUnits="userSpaceOnUse" color-interpolation-filters="sRGB">
<feFlood flood-opacity="0" result="BackgroundImageFix"/>
<feBlend mode="normal" in="SourceGraphic" in2="BackgroundImageFix" result="shape"/>
<feGaussianBlur stdDeviation="0.5" result="effect1_foregroundBlur_55_4770"/>
</filter>
<filter id="filter3_f_55_4770" x="99.1826" y="150.689" width="94.1855" height="94.1865" filterUnits="userSpaceOnUse" color-interpolation-filters="sRGB">
<feFlood flood-opacity="0" result="BackgroundImageFix"/>
<feBlend mode="normal" in="SourceGraphic" in2="BackgroundImageFix" result="shape"/>
<feGaussianBlur stdDeviation="0.5" result="effect1_foregroundBlur_55_4770"/>
</filter>
<filter id="filter4_f_55_4770" x="132.243" y="183.753" width="94.1855" height="94.1863" filterUnits="userSpaceOnUse" color-interpolation-filters="sRGB">
<feFlood flood-opacity="0" result="BackgroundImageFix"/>
<feBlend mode="normal" in="SourceGraphic" in2="BackgroundImageFix" result="shape"/>
<feGaussianBlur stdDeviation="0.5" result="effect1_foregroundBlur_55_4770"/>
</filter>
<filter id="filter5_f_55_4770" x="165.304" y="216.813" width="94.1855" height="94.1863" filterUnits="userSpaceOnUse" color-interpolation-filters="sRGB">
<feFlood flood-opacity="0" result="BackgroundImageFix"/>
<feBlend mode="normal" in="SourceGraphic" in2="BackgroundImageFix" result="shape"/>
<feGaussianBlur stdDeviation="0.5" result="effect1_foregroundBlur_55_4770"/>
</filter>
<filter id="filter6_f_55_4770" x="99.1826" y="76.7896" width="94.1855" height="94.1863" filterUnits="userSpaceOnUse" color-interpolation-filters="sRGB">
<feFlood flood-opacity="0" result="BackgroundImageFix"/>
<feBlend mode="normal" in="SourceGraphic" in2="BackgroundImageFix" result="shape"/>
<feGaussianBlur stdDeviation="0.5" result="effect1_foregroundBlur_55_4770"/>
</filter>
<linearGradient id="paint0_linear_55_4770" x1="34.109" y1="52.5078" x2="34.109" y2="118.726" gradientUnits="userSpaceOnUse">
<stop stop-color="#710BC2"/>
<stop offset="1" stop-color="#B31374"/>
</linearGradient>
<linearGradient id="paint1_linear_55_4770" x1="34.109" y1="52.5078" x2="34.109" y2="118.726" gradientUnits="userSpaceOnUse">
<stop stop-color="#710BC2"/>
<stop offset="1" stop-color="#B31374"/>
</linearGradient>
<linearGradient id="paint2_linear_55_4770" x1="34.109" y1="118.726" x2="34.109" y2="144.694" gradientUnits="userSpaceOnUse">
<stop stop-color="#710BC2"/>
<stop offset="1" stop-color="#B31374"/>
</linearGradient>
<linearGradient id="paint3_linear_55_4770" x1="34.109" y1="118.726" x2="34.109" y2="144.694" gradientUnits="userSpaceOnUse">
<stop stop-color="#710BC2"/>
<stop offset="1" stop-color="#B31374"/>
</linearGradient>
<linearGradient id="paint4_linear_55_4770" x1="18.3922" y1="0" x2="18.3922" y2="65.6224" gradientUnits="userSpaceOnUse">
<stop stop-color="#710BC2"/>
<stop offset="1" stop-color="#B31374"/>
</linearGradient>
<linearGradient id="paint5_linear_55_4770" x1="67.1696" y1="85.5696" x2="67.1696" y2="151.788" gradientUnits="userSpaceOnUse">
<stop stop-color="#710BC2"/>
<stop offset="1" stop-color="#B31374"/>
</linearGradient>
<linearGradient id="paint6_linear_55_4770" x1="67.1696" y1="85.5696" x2="67.1696" y2="151.788" gradientUnits="userSpaceOnUse">
<stop stop-color="#710BC2"/>
<stop offset="1" stop-color="#B31374"/>
</linearGradient>
<linearGradient id="paint7_linear_55_4770" x1="67.1696" y1="151.788" x2="67.1696" y2="177.755" gradientUnits="userSpaceOnUse">
<stop stop-color="#710BC2"/>
<stop offset="1" stop-color="#B31374"/>
</linearGradient>
<linearGradient id="paint8_linear_55_4770" x1="67.1696" y1="151.788" x2="67.1696" y2="177.755" gradientUnits="userSpaceOnUse">
<stop stop-color="#710BC2"/>
<stop offset="1" stop-color="#B31374"/>
</linearGradient>
<linearGradient id="paint9_linear_55_4770" x1="18.3922" y1="0" x2="18.3922" y2="65.6224" gradientUnits="userSpaceOnUse">
<stop stop-color="#710BC2"/>
<stop offset="1" stop-color="#B31374"/>
</linearGradient>
<linearGradient id="paint10_linear_55_4770" x1="100.231" y1="118.629" x2="100.231" y2="184.847" gradientUnits="userSpaceOnUse">
<stop stop-color="#710BC2"/>
<stop offset="1" stop-color="#B31374"/>
</linearGradient>
<linearGradient id="paint11_linear_55_4770" x1="100.231" y1="118.629" x2="100.231" y2="184.847" gradientUnits="userSpaceOnUse">
<stop stop-color="#710BC2"/>
<stop offset="1" stop-color="#B31374"/>
</linearGradient>
<linearGradient id="paint12_linear_55_4770" x1="100.231" y1="184.847" x2="100.231" y2="210.815" gradientUnits="userSpaceOnUse">
<stop stop-color="#710BC2"/>
<stop offset="1" stop-color="#B31374"/>
</linearGradient>
<linearGradient id="paint13_linear_55_4770" x1="100.231" y1="184.847" x2="100.231" y2="210.815" gradientUnits="userSpaceOnUse">
<stop stop-color="#710BC2"/>
<stop offset="1" stop-color="#B31374"/>
</linearGradient>
<linearGradient id="paint14_linear_55_4770" x1="18.3922" y1="0" x2="18.3922" y2="65.6224" gradientUnits="userSpaceOnUse">
<stop stop-color="#710BC2"/>
<stop offset="1" stop-color="#B31374"/>
</linearGradient>
<linearGradient id="paint15_linear_55_4770" x1="133.292" y1="151.689" x2="133.292" y2="217.907" gradientUnits="userSpaceOnUse">
<stop stop-color="#710BC2"/>
<stop offset="1" stop-color="#B31374"/>
</linearGradient>
<linearGradient id="paint16_linear_55_4770" x1="133.292" y1="151.689" x2="133.292" y2="217.907" gradientUnits="userSpaceOnUse">
<stop stop-color="#710BC2"/>
<stop offset="1" stop-color="#B31374"/>
</linearGradient>
<linearGradient id="paint17_linear_55_4770" x1="133.292" y1="217.908" x2="133.292" y2="243.876" gradientUnits="userSpaceOnUse">
<stop stop-color="#710BC2"/>
<stop offset="1" stop-color="#B31374"/>
</linearGradient>
<linearGradient id="paint18_linear_55_4770" x1="133.292" y1="217.908" x2="133.292" y2="243.876" gradientUnits="userSpaceOnUse">
<stop stop-color="#710BC2"/>
<stop offset="1" stop-color="#B31374"/>
</linearGradient>
<linearGradient id="paint19_linear_55_4770" x1="18.3922" y1="0" x2="18.3922" y2="65.6224" gradientUnits="userSpaceOnUse">
<stop stop-color="#710BC2"/>
<stop offset="1" stop-color="#B31374"/>
</linearGradient>
<linearGradient id="paint20_linear_55_4770" x1="166.352" y1="184.753" x2="166.352" y2="250.971" gradientUnits="userSpaceOnUse">
<stop stop-color="#710BC2"/>
<stop offset="1" stop-color="#B31374"/>
</linearGradient>
<linearGradient id="paint21_linear_55_4770" x1="166.352" y1="184.753" x2="166.352" y2="250.971" gradientUnits="userSpaceOnUse">
<stop stop-color="#710BC2"/>
<stop offset="1" stop-color="#B31374"/>
</linearGradient>
<linearGradient id="paint22_linear_55_4770" x1="166.352" y1="250.971" x2="166.352" y2="276.939" gradientUnits="userSpaceOnUse">
<stop stop-color="#710BC2"/>
<stop offset="1" stop-color="#B31374"/>
</linearGradient>
<linearGradient id="paint23_linear_55_4770" x1="166.352" y1="250.971" x2="166.352" y2="276.939" gradientUnits="userSpaceOnUse">
<stop stop-color="#710BC2"/>
<stop offset="1" stop-color="#B31374"/>
</linearGradient>
<linearGradient id="paint24_linear_55_4770" x1="18.3922" y1="0" x2="18.3922" y2="65.6224" gradientUnits="userSpaceOnUse">
<stop stop-color="#710BC2"/>
<stop offset="1" stop-color="#B31374"/>
</linearGradient>
<linearGradient id="paint25_linear_55_4770" x1="199.413" y1="217.813" x2="199.413" y2="284.031" gradientUnits="userSpaceOnUse">
<stop stop-color="#710BC2"/>
<stop offset="1" stop-color="#B31374"/>
</linearGradient>
<linearGradient id="paint26_linear_55_4770" x1="199.413" y1="217.813" x2="199.413" y2="284.031" gradientUnits="userSpaceOnUse">
<stop stop-color="#710BC2"/>
<stop offset="1" stop-color="#B31374"/>
</linearGradient>
<linearGradient id="paint27_linear_55_4770" x1="199.413" y1="284.031" x2="199.413" y2="309.999" gradientUnits="userSpaceOnUse">
<stop stop-color="#710BC2"/>
<stop offset="1" stop-color="#B31374"/>
</linearGradient>
<linearGradient id="paint28_linear_55_4770" x1="199.413" y1="284.031" x2="199.413" y2="309.999" gradientUnits="userSpaceOnUse">
<stop stop-color="#710BC2"/>
<stop offset="1" stop-color="#B31374"/>
</linearGradient>
<linearGradient id="paint29_linear_55_4770" x1="18.3922" y1="0" x2="18.3922" y2="65.6224" gradientUnits="userSpaceOnUse">
<stop stop-color="#710BC2"/>
<stop offset="1" stop-color="#B31374"/>
</linearGradient>
<linearGradient id="paint30_linear_55_4770" x1="159.259" y1="103.758" x2="159.259" y2="169.976" gradientUnits="userSpaceOnUse">
<stop stop-color="#BC0072"/>
<stop offset="1" stop-color="#FF009B"/>
</linearGradient>
<linearGradient id="paint31_linear_55_4770" x1="18.3922" y1="0" x2="18.3922" y2="65.6224" gradientUnits="userSpaceOnUse">
<stop stop-color="#BE0073"/>
<stop offset="1" stop-color="#B90070"/>
</linearGradient>
<linearGradient id="paint32_linear_55_4770" x1="133.292" y1="77.7896" x2="133.292" y2="103.757" gradientUnits="userSpaceOnUse">
<stop stop-color="#A71C70"/>
<stop offset="1" stop-color="#4D0530" stop-opacity="0.85"/>
</linearGradient>
<linearGradient id="paint33_linear_55_4770" x1="132.585" y1="23.0563" x2="168.926" y2="82.0455" gradientUnits="userSpaceOnUse">
<stop stop-color="#FF699E"/>
<stop offset="1" stop-color="#FF699E"/>
</linearGradient>
<linearGradient id="paint34_linear_55_4770" x1="119.132" y1="-1.60563" x2="166.349" y2="63.095" gradientUnits="userSpaceOnUse">
<stop stop-color="#FFA178"/>
<stop offset="1" stop-color="#BF0F7A"/>
</linearGradient>
</defs>
</svg>
