<svg width="826" height="896" viewBox="0 0 826 896" fill="none" xmlns="http://www.w3.org/2000/svg">
<path d="M30.2079 224.364L33.5079 210.306H38.8209L42.1539 224.364L45.4539 210.306H52.0209L45.7839 234H39.5799L36.0819 220.008L32.5839 234H26.3799L20.1429 210.306H26.8749L30.2079 224.364ZM61.3456 234.396C60.0036 234.396 58.7716 234.187 57.6496 233.769C56.5276 233.329 55.5596 232.691 54.7456 231.855C53.9316 231.041 53.3046 230.073 52.8646 228.951C52.4466 227.807 52.2376 226.575 52.2376 225.255C52.2376 223.979 52.4576 222.791 52.8976 221.691C53.3376 220.569 53.9756 219.59 54.8116 218.754C55.6476 217.918 56.6156 217.28 57.7156 216.84C58.8376 216.4 60.0256 216.18 61.2796 216.18C62.5776 216.18 63.7546 216.4 64.8106 216.84C65.8886 217.28 66.8016 217.918 67.5496 218.754C68.2756 219.568 68.8256 220.525 69.1996 221.625C69.5736 222.725 69.7606 223.924 69.7606 225.222V226.641H58.3096C58.4856 227.565 58.8486 228.28 59.3986 228.786C59.9486 229.292 60.6306 229.545 61.4446 229.545C62.2146 229.545 62.8526 229.38 63.3586 229.05C63.8646 228.698 64.2276 228.203 64.4476 227.565L69.5956 229.116C69.0016 230.744 67.9566 232.031 66.4606 232.977C64.9646 233.923 63.2596 234.396 61.3456 234.396ZM61.2136 220.833C60.5316 220.833 59.9486 221.031 59.4646 221.427C58.9806 221.823 58.6396 222.406 58.4416 223.176H63.6886C63.6446 222.494 63.3916 221.933 62.9296 221.493C62.4896 221.053 61.9176 220.833 61.2136 220.833ZM97.601 231.525C96.941 232.471 96.127 233.186 95.159 233.67C94.213 234.154 93.157 234.396 91.991 234.396C91.067 234.396 90.198 234.22 89.384 233.868C88.592 233.494 87.954 232.988 87.47 232.35V234H81.2V210.306H87.47V218.193C87.932 217.577 88.559 217.093 89.351 216.741C90.165 216.367 91.045 216.18 91.991 216.18C93.157 216.18 94.213 216.422 95.159 216.906C96.127 217.39 96.941 218.105 97.601 219.051C98.173 219.865 98.613 220.811 98.921 221.889C99.229 222.945 99.383 224.078 99.383 225.288C99.383 226.498 99.229 227.642 98.921 228.72C98.613 229.776 98.173 230.711 97.601 231.525ZM90.242 221.46C89.384 221.46 88.702 221.768 88.196 222.384C87.712 222.978 87.47 223.814 87.47 224.892V225.717C87.47 226.773 87.712 227.609 88.196 228.225C88.702 228.819 89.384 229.116 90.242 229.116C91.122 229.116 91.815 228.775 92.321 228.093C92.827 227.389 93.08 226.454 93.08 225.288C93.08 224.122 92.827 223.198 92.321 222.516C91.815 221.812 91.122 221.46 90.242 221.46ZM111.317 234.396C109.975 234.396 108.743 234.187 107.621 233.769C106.499 233.329 105.531 232.691 104.717 231.855C103.903 231.041 103.276 230.073 102.836 228.951C102.418 227.807 102.209 226.575 102.209 225.255C102.209 223.979 102.429 222.791 102.869 221.691C103.309 220.569 103.947 219.59 104.783 218.754C105.619 217.918 106.587 217.28 107.687 216.84C108.809 216.4 109.997 216.18 111.251 216.18C112.549 216.18 113.726 216.4 114.782 216.84C115.86 217.28 116.773 217.918 117.521 218.754C118.247 219.568 118.797 220.525 119.171 221.625C119.545 222.725 119.732 223.924 119.732 225.222V226.641H108.281C108.457 227.565 108.82 228.28 109.37 228.786C109.92 229.292 110.602 229.545 111.416 229.545C112.186 229.545 112.824 229.38 113.33 229.05C113.836 228.698 114.199 228.203 114.419 227.565L119.567 229.116C118.973 230.744 117.928 232.031 116.432 232.977C114.936 233.923 113.231 234.396 111.317 234.396ZM111.185 220.833C110.503 220.833 109.92 221.031 109.436 221.427C108.952 221.823 108.611 222.406 108.413 223.176H113.66C113.616 222.494 113.363 221.933 112.901 221.493C112.461 221.053 111.889 220.833 111.185 220.833ZM123.291 210.306H129.561V234H123.291V210.306ZM140.311 215.19H134.008V210.306H140.311V215.19ZM134.008 216.576H140.278V234H134.008V216.576ZM152.974 234.396C151.632 234.396 150.4 234.187 149.278 233.769C148.156 233.329 147.188 232.691 146.374 231.855C145.56 231.041 144.933 230.073 144.493 228.951C144.075 227.807 143.866 226.575 143.866 225.255C143.866 223.979 144.086 222.791 144.526 221.691C144.966 220.569 145.604 219.59 146.44 218.754C147.276 217.918 148.244 217.28 149.344 216.84C150.466 216.4 151.654 216.18 152.908 216.18C154.206 216.18 155.383 216.4 156.439 216.84C157.517 217.28 158.43 217.918 159.178 218.754C159.904 219.568 160.454 220.525 160.828 221.625C161.202 222.725 161.389 223.924 161.389 225.222V226.641H149.938C150.114 227.565 150.477 228.28 151.027 228.786C151.577 229.292 152.259 229.545 153.073 229.545C153.843 229.545 154.481 229.38 154.987 229.05C155.493 228.698 155.856 228.203 156.076 227.565L161.224 229.116C160.63 230.744 159.585 232.031 158.089 232.977C156.593 233.923 154.888 234.396 152.974 234.396ZM152.842 220.833C152.16 220.833 151.577 221.031 151.093 221.427C150.609 221.823 150.268 222.406 150.07 223.176H155.317C155.273 222.494 155.02 221.933 154.558 221.493C154.118 221.053 153.546 220.833 152.842 220.833ZM181.203 216.576L174.999 234H168.828L162.657 216.576H169.059L172.095 226.278L175.065 216.576H181.203ZM191.52 234.396C190.178 234.396 188.946 234.187 187.824 233.769C186.702 233.329 185.734 232.691 184.92 231.855C184.106 231.041 183.479 230.073 183.039 228.951C182.621 227.807 182.412 226.575 182.412 225.255C182.412 223.979 182.632 222.791 183.072 221.691C183.512 220.569 184.15 219.59 184.986 218.754C185.822 217.918 186.79 217.28 187.89 216.84C189.012 216.4 190.2 216.18 191.454 216.18C192.752 216.18 193.929 216.4 194.985 216.84C196.063 217.28 196.976 217.918 197.724 218.754C198.45 219.568 199 220.525 199.374 221.625C199.748 222.725 199.935 223.924 199.935 225.222V226.641H188.484C188.66 227.565 189.023 228.28 189.573 228.786C190.123 229.292 190.805 229.545 191.619 229.545C192.389 229.545 193.027 229.38 193.533 229.05C194.039 228.698 194.402 228.203 194.622 227.565L199.77 229.116C199.176 230.744 198.131 232.031 196.635 232.977C195.139 233.923 193.434 234.396 191.52 234.396ZM191.388 220.833C190.706 220.833 190.123 221.031 189.639 221.427C189.155 221.823 188.814 222.406 188.616 223.176H193.863C193.819 222.494 193.566 221.933 193.104 221.493C192.664 221.053 192.092 220.833 191.388 220.833ZM217.678 215.19H211.375V210.306H217.678V215.19ZM211.375 216.576H217.645V234H211.375V216.576ZM228.362 234H222.092V216.576H228.362V218.193C228.912 217.577 229.605 217.093 230.441 216.741C231.299 216.367 232.19 216.18 233.114 216.18C234.874 216.18 236.282 216.752 237.338 217.896C238.416 219.04 238.955 220.569 238.955 222.483V234H232.685V224.232C232.685 223.44 232.509 222.824 232.157 222.384C231.805 221.944 231.31 221.724 230.672 221.724C229.99 221.724 229.429 221.955 228.989 222.417C228.571 222.879 228.362 223.495 228.362 224.265V234ZM261.425 232.548C260.809 233.142 260.072 233.593 259.214 233.901C258.378 234.187 257.421 234.33 256.343 234.33C254.539 234.33 253.065 233.846 251.921 232.878C250.799 231.91 250.238 230.667 250.238 229.149C250.238 227.499 250.854 226.201 252.086 225.255C253.34 224.287 255.177 223.682 257.597 223.44L260.831 223.011V222.747C260.831 222.175 260.666 221.746 260.336 221.46C260.006 221.174 259.511 221.031 258.851 221.031C258.235 221.031 257.751 221.174 257.399 221.46C257.047 221.746 256.816 222.186 256.706 222.78L250.667 222.087C251.041 220.305 251.976 218.875 253.472 217.797C254.99 216.719 256.871 216.18 259.115 216.18C261.623 216.18 263.559 216.73 264.923 217.83C266.287 218.908 266.969 220.437 266.969 222.417V228.588C266.969 228.984 267.057 229.259 267.233 229.413C267.431 229.545 267.761 229.578 268.223 229.512V233.967C266.639 234.297 265.253 234.33 264.065 234.066C262.877 233.824 261.997 233.318 261.425 232.548ZM258.026 229.941C258.862 229.941 259.533 229.743 260.039 229.347C260.567 228.929 260.831 228.368 260.831 227.664V226.74L258.29 227.103C257.586 227.213 257.08 227.389 256.772 227.631C256.464 227.873 256.31 228.203 256.31 228.621C256.31 229.039 256.453 229.369 256.739 229.611C257.047 229.831 257.476 229.941 258.026 229.941ZM287.477 210.042C287.807 210.042 288.126 210.053 288.434 210.075C288.764 210.097 289.171 210.141 289.655 210.207V214.827C289.303 214.805 289.05 214.794 288.896 214.794C288.742 214.772 288.599 214.761 288.467 214.761C287.807 214.761 287.345 214.871 287.081 215.091C286.817 215.311 286.685 215.696 286.685 216.246V216.576H289.622V221.658H286.685V234H280.415V221.658H278.303V216.576H280.415V215.949C280.415 213.925 280.987 212.44 282.131 211.494C283.275 210.526 285.057 210.042 287.477 210.042ZM303.445 216.576H309.715V234H303.445V232.383C302.873 233.021 302.18 233.516 301.366 233.868C300.574 234.22 299.716 234.396 298.792 234.396C297.01 234.396 295.569 233.824 294.469 232.68C293.391 231.514 292.852 229.985 292.852 228.093V216.576H299.122V226.575C299.122 227.345 299.298 227.939 299.65 228.357C300.002 228.775 300.508 228.984 301.168 228.984C301.85 228.984 302.4 228.764 302.818 228.324C303.236 227.862 303.445 227.246 303.445 226.476V216.576ZM320.938 234.165C318.826 234.165 317.286 233.769 316.318 232.977C315.372 232.163 314.899 230.876 314.899 229.116V221.658H312.787V216.576H314.899V211.956H321.07V216.576H324.304V221.658H321.07V227.235C321.07 227.851 321.202 228.291 321.466 228.555C321.752 228.797 322.258 228.918 322.984 228.918C323.182 228.918 323.358 228.918 323.512 228.918C323.666 228.896 323.963 228.863 324.403 228.819V233.901C323.831 233.989 323.27 234.055 322.72 234.099C322.17 234.143 321.576 234.165 320.938 234.165ZM338.607 216.576H344.877V234H338.607V232.383C338.035 233.021 337.342 233.516 336.528 233.868C335.736 234.22 334.878 234.396 333.954 234.396C332.172 234.396 330.731 233.824 329.631 232.68C328.553 231.514 328.014 229.985 328.014 228.093V216.576H334.284V226.575C334.284 227.345 334.46 227.939 334.812 228.357C335.164 228.775 335.67 228.984 336.33 228.984C337.012 228.984 337.562 228.764 337.98 228.324C338.398 227.862 338.607 227.246 338.607 226.476V216.576ZM359.829 216.477C359.983 216.477 360.126 216.488 360.258 216.51C360.39 216.51 360.632 216.521 360.984 216.543V222.45C360.676 222.406 360.401 222.373 360.159 222.351C359.939 222.329 359.686 222.318 359.4 222.318C358.234 222.318 357.299 222.637 356.595 223.275C355.891 223.913 355.539 224.782 355.539 225.882V234H349.269V216.576H355.539V218.622C355.979 217.962 356.573 217.445 357.321 217.071C358.091 216.675 358.927 216.477 359.829 216.477ZM372.297 234.396C370.955 234.396 369.723 234.187 368.601 233.769C367.479 233.329 366.511 232.691 365.697 231.855C364.883 231.041 364.256 230.073 363.816 228.951C363.398 227.807 363.189 226.575 363.189 225.255C363.189 223.979 363.409 222.791 363.849 221.691C364.289 220.569 364.927 219.59 365.763 218.754C366.599 217.918 367.567 217.28 368.667 216.84C369.789 216.4 370.977 216.18 372.231 216.18C373.529 216.18 374.706 216.4 375.762 216.84C376.84 217.28 377.753 217.918 378.501 218.754C379.227 219.568 379.777 220.525 380.151 221.625C380.525 222.725 380.712 223.924 380.712 225.222V226.641H369.261C369.437 227.565 369.8 228.28 370.35 228.786C370.9 229.292 371.582 229.545 372.396 229.545C373.166 229.545 373.804 229.38 374.31 229.05C374.816 228.698 375.179 228.203 375.399 227.565L380.547 229.116C379.953 230.744 378.908 232.031 377.412 232.977C375.916 233.923 374.211 234.396 372.297 234.396ZM372.165 220.833C371.483 220.833 370.9 221.031 370.416 221.427C369.932 221.823 369.591 222.406 369.393 223.176H374.64C374.596 222.494 374.343 221.933 373.881 221.493C373.441 221.053 372.869 220.833 372.165 220.833ZM399.378 225.816L401.622 216.576H406.077L408.387 225.816L410.763 216.576H416.802L411.522 234H406.143L403.734 225.651L401.325 234H395.946L390.666 216.576H396.936L399.378 225.816ZM425.993 234H419.723V210.306H425.993V218.193C426.543 217.577 427.236 217.093 428.072 216.741C428.93 216.367 429.821 216.18 430.745 216.18C432.505 216.18 433.913 216.752 434.969 217.896C436.047 219.04 436.586 220.569 436.586 222.483V234H430.316V224.232C430.316 223.44 430.14 222.824 429.788 222.384C429.436 221.944 428.941 221.724 428.303 221.724C427.621 221.724 427.06 221.955 426.62 222.417C426.202 222.879 425.993 223.495 425.993 224.265V234ZM449.195 234.396C447.853 234.396 446.621 234.187 445.499 233.769C444.377 233.329 443.409 232.691 442.595 231.855C441.781 231.041 441.154 230.073 440.714 228.951C440.296 227.807 440.087 226.575 440.087 225.255C440.087 223.979 440.307 222.791 440.747 221.691C441.187 220.569 441.825 219.59 442.661 218.754C443.497 217.918 444.465 217.28 445.565 216.84C446.687 216.4 447.875 216.18 449.129 216.18C450.427 216.18 451.604 216.4 452.66 216.84C453.738 217.28 454.651 217.918 455.399 218.754C456.125 219.568 456.675 220.525 457.049 221.625C457.423 222.725 457.61 223.924 457.61 225.222V226.641H446.159C446.335 227.565 446.698 228.28 447.248 228.786C447.798 229.292 448.48 229.545 449.294 229.545C450.064 229.545 450.702 229.38 451.208 229.05C451.714 228.698 452.077 228.203 452.297 227.565L457.445 229.116C456.851 230.744 455.806 232.031 454.31 232.977C452.814 233.923 451.109 234.396 449.195 234.396ZM449.063 220.833C448.381 220.833 447.798 221.031 447.314 221.427C446.83 221.823 446.489 222.406 446.291 223.176H451.538C451.494 222.494 451.241 221.933 450.779 221.493C450.339 221.053 449.767 220.833 449.063 220.833ZM471.729 216.477C471.883 216.477 472.026 216.488 472.158 216.51C472.29 216.51 472.532 216.521 472.884 216.543V222.45C472.576 222.406 472.301 222.373 472.059 222.351C471.839 222.329 471.586 222.318 471.3 222.318C470.134 222.318 469.199 222.637 468.495 223.275C467.791 223.913 467.439 224.782 467.439 225.882V234H461.169V216.576H467.439V218.622C467.879 217.962 468.473 217.445 469.221 217.071C469.991 216.675 470.827 216.477 471.729 216.477ZM484.196 234.396C482.854 234.396 481.622 234.187 480.5 233.769C479.378 233.329 478.41 232.691 477.596 231.855C476.782 231.041 476.155 230.073 475.715 228.951C475.297 227.807 475.088 226.575 475.088 225.255C475.088 223.979 475.308 222.791 475.748 221.691C476.188 220.569 476.826 219.59 477.662 218.754C478.498 217.918 479.466 217.28 480.566 216.84C481.688 216.4 482.876 216.18 484.13 216.18C485.428 216.18 486.605 216.4 487.661 216.84C488.739 217.28 489.652 217.918 490.4 218.754C491.126 219.568 491.676 220.525 492.05 221.625C492.424 222.725 492.611 223.924 492.611 225.222V226.641H481.16C481.336 227.565 481.699 228.28 482.249 228.786C482.799 229.292 483.481 229.545 484.295 229.545C485.065 229.545 485.703 229.38 486.209 229.05C486.715 228.698 487.078 228.203 487.298 227.565L492.446 229.116C491.852 230.744 490.807 232.031 489.311 232.977C487.815 233.923 486.11 234.396 484.196 234.396ZM484.064 220.833C483.382 220.833 482.799 221.031 482.315 221.427C481.831 221.823 481.49 222.406 481.292 223.176H486.539C486.495 222.494 486.242 221.933 485.78 221.493C485.34 221.053 484.768 220.833 484.064 220.833ZM512.994 234H504.216V210.306H512.994C514.842 210.306 516.514 210.57 518.01 211.098C519.528 211.626 520.815 212.396 521.871 213.408C522.971 214.464 523.807 215.74 524.379 217.236C524.951 218.71 525.237 220.349 525.237 222.153C525.237 223.957 524.951 225.607 524.379 227.103C523.807 228.577 522.971 229.842 521.871 230.898C520.815 231.91 519.528 232.68 518.01 233.208C516.514 233.736 514.842 234 512.994 234ZM510.519 215.751V228.555H512.994C514.842 228.555 516.272 227.994 517.284 226.872C518.318 225.728 518.835 224.155 518.835 222.153C518.835 220.129 518.318 218.556 517.284 217.434C516.272 216.312 514.842 215.751 512.994 215.751H510.519ZM525.822 234L534.369 210.306H541.827L550.374 234H543.807L542.289 229.71H533.709L532.224 234H525.822ZM540.474 224.529L537.999 217.467L535.524 224.529H540.474ZM554.091 230.832C553.079 229.732 552.298 228.445 551.748 226.971C551.22 225.475 550.956 223.869 550.956 222.153C550.956 220.437 551.22 218.842 551.748 217.368C552.298 215.872 553.079 214.574 554.091 213.474C555.147 212.308 556.39 211.428 557.82 210.834C559.272 210.218 560.845 209.91 562.539 209.91C564.233 209.91 565.806 210.218 567.258 210.834C568.71 211.428 569.964 212.297 571.02 213.441C572.032 214.563 572.802 215.872 573.33 217.368C573.88 218.842 574.155 220.437 574.155 222.153C574.155 223.869 573.88 225.475 573.33 226.971C572.802 228.445 572.032 229.743 571.02 230.865C569.964 232.009 568.71 232.889 567.258 233.505C565.806 234.099 564.233 234.396 562.539 234.396C560.845 234.396 559.272 234.099 557.82 233.505C556.39 232.889 555.147 231.998 554.091 230.832ZM562.539 228.786C564.079 228.786 565.311 228.192 566.235 227.004C567.181 225.794 567.654 224.177 567.654 222.153C567.654 220.129 567.181 218.523 566.235 217.335C565.311 216.125 564.079 215.52 562.539 215.52C560.999 215.52 559.767 216.125 558.843 217.335C557.919 218.523 557.457 220.129 557.457 222.153C557.457 224.177 557.919 225.794 558.843 227.004C559.767 228.192 560.999 228.786 562.539 228.786ZM584.504 234.363C582.964 234.363 581.424 234.143 579.884 233.703C578.366 233.263 577.2 232.691 576.386 231.987L578.729 227.73C579.543 228.368 580.522 228.885 581.666 229.281C582.81 229.677 583.866 229.875 584.834 229.875C585.494 229.875 586 229.798 586.352 229.644C586.704 229.468 586.88 229.215 586.88 228.885C586.88 228.599 586.77 228.39 586.55 228.258C586.33 228.104 585.901 227.961 585.263 227.829C585.021 227.785 584.636 227.719 584.108 227.631C583.58 227.543 583.261 227.488 583.151 227.466C582.073 227.268 581.226 227.07 580.61 226.872C579.994 226.652 579.466 226.399 579.026 226.113C578.41 225.695 577.948 225.178 577.64 224.562C577.332 223.924 577.178 223.176 577.178 222.318C577.178 220.47 577.915 218.985 579.389 217.863C580.863 216.741 582.766 216.18 585.098 216.18C586.594 216.18 588.024 216.4 589.388 216.84C590.752 217.28 591.874 217.874 592.754 218.622L590.114 222.45C589.366 221.878 588.563 221.438 587.705 221.13C586.869 220.8 586.033 220.635 585.197 220.635C584.647 220.635 584.218 220.723 583.91 220.899C583.624 221.053 583.481 221.273 583.481 221.559C583.481 221.801 583.569 221.988 583.745 222.12C583.921 222.252 584.251 222.373 584.735 222.483C584.823 222.505 585.01 222.538 585.296 222.582C585.582 222.626 585.956 222.692 586.418 222.78C587.584 222.978 588.508 223.187 589.19 223.407C589.872 223.627 590.444 223.891 590.906 224.199C591.632 224.639 592.171 225.189 592.523 225.849C592.875 226.487 593.051 227.257 593.051 228.159C593.051 230.073 592.27 231.591 590.708 232.713C589.146 233.813 587.078 234.363 584.504 234.363ZM612.218 210.042C612.548 210.042 612.867 210.053 613.175 210.075C613.505 210.097 613.912 210.141 614.396 210.207V214.827C614.044 214.805 613.791 214.794 613.637 214.794C613.483 214.772 613.34 214.761 613.208 214.761C612.548 214.761 612.086 214.871 611.822 215.091C611.558 215.311 611.426 215.696 611.426 216.246V216.576H614.363V221.658H611.426V234H605.156V221.658H603.044V216.576H605.156V215.949C605.156 213.925 605.728 212.44 606.872 211.494C608.016 210.526 609.798 210.042 612.218 210.042ZM617.626 210.306H623.896V234H617.626V210.306ZM642.962 218.721C643.754 219.557 644.359 220.536 644.777 221.658C645.195 222.758 645.404 223.968 645.404 225.288C645.404 226.608 645.195 227.829 644.777 228.951C644.359 230.051 643.754 231.019 642.962 231.855C642.148 232.669 641.18 233.296 640.058 233.736C638.958 234.176 637.759 234.396 636.461 234.396C635.163 234.396 633.953 234.176 632.831 233.736C631.731 233.296 630.774 232.669 629.96 231.855C629.146 231.019 628.53 230.051 628.112 228.951C627.694 227.829 627.485 226.608 627.485 225.288C627.485 223.968 627.694 222.758 628.112 221.658C628.53 220.536 629.146 219.557 629.96 218.721C630.774 217.907 631.731 217.28 632.831 216.84C633.953 216.4 635.163 216.18 636.461 216.18C637.759 216.18 638.958 216.4 640.058 216.84C641.18 217.28 642.148 217.907 642.962 218.721ZM636.461 221.229C635.581 221.229 634.888 221.581 634.382 222.285C633.898 222.989 633.656 223.99 633.656 225.288C633.656 226.586 633.898 227.587 634.382 228.291C634.866 228.995 635.559 229.347 636.461 229.347C637.341 229.347 638.023 228.995 638.507 228.291C638.991 227.587 639.233 226.586 639.233 225.288C639.233 223.99 638.991 222.989 638.507 222.285C638.023 221.581 637.341 221.229 636.461 221.229ZM659.545 216.576H665.815V234H659.545V232.383C658.973 233.021 658.28 233.516 657.466 233.868C656.674 234.22 655.816 234.396 654.892 234.396C653.11 234.396 651.669 233.824 650.569 232.68C649.491 231.514 648.952 229.985 648.952 228.093V216.576H655.222V226.575C655.222 227.345 655.398 227.939 655.75 228.357C656.102 228.775 656.608 228.984 657.268 228.984C657.95 228.984 658.5 228.764 658.918 228.324C659.336 227.862 659.545 227.246 659.545 226.476V216.576ZM680.768 216.477C680.922 216.477 681.065 216.488 681.197 216.51C681.329 216.51 681.571 216.521 681.923 216.543V222.45C681.615 222.406 681.34 222.373 681.098 222.351C680.878 222.329 680.625 222.318 680.339 222.318C679.173 222.318 678.238 222.637 677.534 223.275C676.83 223.913 676.478 224.782 676.478 225.882V234H670.208V216.576H676.478V218.622C676.918 217.962 677.512 217.445 678.26 217.071C679.03 216.675 679.866 216.477 680.768 216.477ZM691.772 215.19H685.469V210.306H691.772V215.19ZM685.469 216.576H691.739V234H685.469V216.576ZM702.851 234.363C701.311 234.363 699.771 234.143 698.231 233.703C696.713 233.263 695.547 232.691 694.733 231.987L697.076 227.73C697.89 228.368 698.869 228.885 700.013 229.281C701.157 229.677 702.213 229.875 703.181 229.875C703.841 229.875 704.347 229.798 704.699 229.644C705.051 229.468 705.227 229.215 705.227 228.885C705.227 228.599 705.117 228.39 704.897 228.258C704.677 228.104 704.248 227.961 703.61 227.829C703.368 227.785 702.983 227.719 702.455 227.631C701.927 227.543 701.608 227.488 701.498 227.466C700.42 227.268 699.573 227.07 698.957 226.872C698.341 226.652 697.813 226.399 697.373 226.113C696.757 225.695 696.295 225.178 695.987 224.562C695.679 223.924 695.525 223.176 695.525 222.318C695.525 220.47 696.262 218.985 697.736 217.863C699.21 216.741 701.113 216.18 703.445 216.18C704.941 216.18 706.371 216.4 707.735 216.84C709.099 217.28 710.221 217.874 711.101 218.622L708.461 222.45C707.713 221.878 706.91 221.438 706.052 221.13C705.216 220.8 704.38 220.635 703.544 220.635C702.994 220.635 702.565 220.723 702.257 220.899C701.971 221.053 701.828 221.273 701.828 221.559C701.828 221.801 701.916 221.988 702.092 222.12C702.268 222.252 702.598 222.373 703.082 222.483C703.17 222.505 703.357 222.538 703.643 222.582C703.929 222.626 704.303 222.692 704.765 222.78C705.931 222.978 706.855 223.187 707.537 223.407C708.219 223.627 708.791 223.891 709.253 224.199C709.979 224.639 710.518 225.189 710.87 225.849C711.222 226.487 711.398 227.257 711.398 228.159C711.398 230.073 710.617 231.591 709.055 232.713C707.493 233.813 705.425 234.363 702.851 234.363ZM721.068 234H714.798V210.306H721.068V218.193C721.618 217.577 722.311 217.093 723.147 216.741C724.005 216.367 724.896 216.18 725.82 216.18C727.58 216.18 728.988 216.752 730.044 217.896C731.122 219.04 731.661 220.569 731.661 222.483V234H725.391V224.232C725.391 223.44 725.215 222.824 724.863 222.384C724.511 221.944 724.016 221.724 723.378 221.724C722.696 221.724 722.135 221.955 721.695 222.417C721.277 222.879 721.068 223.495 721.068 224.265V234ZM754.131 232.548C753.515 233.142 752.778 233.593 751.92 233.901C751.084 234.187 750.127 234.33 749.049 234.33C747.245 234.33 745.771 233.846 744.627 232.878C743.505 231.91 742.944 230.667 742.944 229.149C742.944 227.499 743.56 226.201 744.792 225.255C746.046 224.287 747.883 223.682 750.303 223.44L753.537 223.011V222.747C753.537 222.175 753.372 221.746 753.042 221.46C752.712 221.174 752.217 221.031 751.557 221.031C750.941 221.031 750.457 221.174 750.105 221.46C749.753 221.746 749.522 222.186 749.412 222.78L743.373 222.087C743.747 220.305 744.682 218.875 746.178 217.797C747.696 216.719 749.577 216.18 751.821 216.18C754.329 216.18 756.265 216.73 757.629 217.83C758.993 218.908 759.675 220.437 759.675 222.417V228.588C759.675 228.984 759.763 229.259 759.939 229.413C760.137 229.545 760.467 229.578 760.929 229.512V233.967C759.345 234.297 757.959 234.33 756.771 234.066C755.583 233.824 754.703 233.318 754.131 232.548ZM750.732 229.941C751.568 229.941 752.239 229.743 752.745 229.347C753.273 228.929 753.537 228.368 753.537 227.664V226.74L750.996 227.103C750.292 227.213 749.786 227.389 749.478 227.631C749.17 227.873 749.016 228.203 749.016 228.621C749.016 229.039 749.159 229.369 749.445 229.611C749.753 229.831 750.182 229.941 750.732 229.941ZM770.685 234H764.415V216.576H770.685V218.193C771.235 217.577 771.928 217.093 772.764 216.741C773.622 216.367 774.513 216.18 775.437 216.18C777.197 216.18 778.605 216.752 779.661 217.896C780.739 219.04 781.278 220.569 781.278 222.483V234H775.008V224.232C775.008 223.44 774.832 222.824 774.48 222.384C774.128 221.944 773.633 221.724 772.995 221.724C772.313 221.724 771.752 221.955 771.312 222.417C770.894 222.879 770.685 223.495 770.685 224.265V234ZM792.205 234.396C791.039 234.396 789.972 234.154 789.004 233.67C788.058 233.186 787.255 232.471 786.595 231.525C786.023 230.711 785.583 229.776 785.275 228.72C784.967 227.642 784.813 226.498 784.813 225.288C784.813 224.078 784.967 222.945 785.275 221.889C785.583 220.811 786.023 219.865 786.595 219.051C787.255 218.105 788.058 217.39 789.004 216.906C789.972 216.422 791.039 216.18 792.205 216.18C793.151 216.18 794.02 216.367 794.812 216.741C795.626 217.093 796.264 217.577 796.726 218.193V210.306H802.996V234H796.726V232.35C796.242 232.988 795.593 233.494 794.779 233.868C793.987 234.22 793.129 234.396 792.205 234.396ZM796.726 225.717V224.892C796.726 223.814 796.473 222.978 795.967 222.384C795.483 221.768 794.812 221.46 793.954 221.46C793.074 221.46 792.381 221.812 791.875 222.516C791.369 223.198 791.116 224.122 791.116 225.288C791.116 226.454 791.369 227.389 791.875 228.093C792.381 228.775 793.074 229.116 793.954 229.116C794.812 229.116 795.483 228.819 795.967 228.225C796.473 227.609 796.726 226.773 796.726 225.717ZM154.671 276.525C154.011 277.471 153.197 278.186 152.229 278.67C151.283 279.154 150.227 279.396 149.061 279.396C148.137 279.396 147.268 279.22 146.454 278.868C145.662 278.494 145.024 277.988 144.54 277.35V279H138.27V255.306H144.54V263.193C145.002 262.577 145.629 262.093 146.421 261.741C147.235 261.367 148.115 261.18 149.061 261.18C150.227 261.18 151.283 261.422 152.229 261.906C153.197 262.39 154.011 263.105 154.671 264.051C155.243 264.865 155.683 265.811 155.991 266.889C156.299 267.945 156.453 269.078 156.453 270.288C156.453 271.498 156.299 272.642 155.991 273.72C155.683 274.776 155.243 275.711 154.671 276.525ZM147.312 266.46C146.454 266.46 145.772 266.768 145.266 267.384C144.782 267.978 144.54 268.814 144.54 269.892V270.717C144.54 271.773 144.782 272.609 145.266 273.225C145.772 273.819 146.454 274.116 147.312 274.116C148.192 274.116 148.885 273.775 149.391 273.093C149.897 272.389 150.15 271.454 150.15 270.288C150.15 269.122 149.897 268.198 149.391 267.516C148.885 266.812 148.192 266.46 147.312 266.46ZM168.388 279.396C167.046 279.396 165.814 279.187 164.692 278.769C163.57 278.329 162.602 277.691 161.788 276.855C160.974 276.041 160.347 275.073 159.907 273.951C159.489 272.807 159.28 271.575 159.28 270.255C159.28 268.979 159.5 267.791 159.94 266.691C160.38 265.569 161.018 264.59 161.854 263.754C162.69 262.918 163.658 262.28 164.758 261.84C165.88 261.4 167.068 261.18 168.322 261.18C169.62 261.18 170.797 261.4 171.853 261.84C172.931 262.28 173.844 262.918 174.592 263.754C175.318 264.568 175.868 265.525 176.242 266.625C176.616 267.725 176.803 268.924 176.803 270.222V271.641H165.352C165.528 272.565 165.891 273.28 166.441 273.786C166.991 274.292 167.673 274.545 168.487 274.545C169.257 274.545 169.895 274.38 170.401 274.05C170.907 273.698 171.27 273.203 171.49 272.565L176.638 274.116C176.044 275.744 174.999 277.031 173.503 277.977C172.007 278.923 170.302 279.396 168.388 279.396ZM168.256 265.833C167.574 265.833 166.991 266.031 166.507 266.427C166.023 266.823 165.682 267.406 165.484 268.176H170.731C170.687 267.494 170.434 266.933 169.972 266.493C169.532 266.053 168.96 265.833 168.256 265.833ZM188.609 266.262C187.707 266.262 187.003 266.614 186.497 267.318C186.013 268.022 185.771 269.012 185.771 270.288C185.771 271.564 186.013 272.554 186.497 273.258C187.003 273.962 187.707 274.314 188.609 274.314C189.269 274.314 189.819 274.094 190.259 273.654C190.699 273.192 190.996 272.554 191.15 271.74L196.628 273.588C196.452 274.446 196.1 275.249 195.572 275.997C195.066 276.745 194.428 277.383 193.658 277.911C192.954 278.395 192.162 278.758 191.282 279C190.424 279.264 189.511 279.396 188.543 279.396C187.245 279.396 186.035 279.176 184.913 278.736C183.813 278.296 182.867 277.658 182.075 276.822C181.261 276.008 180.645 275.04 180.227 273.918C179.809 272.796 179.6 271.586 179.6 270.288C179.6 268.99 179.809 267.78 180.227 266.658C180.645 265.536 181.261 264.568 182.075 263.754C182.867 262.918 183.813 262.28 184.913 261.84C186.035 261.4 187.245 261.18 188.543 261.18C189.511 261.18 190.424 261.301 191.282 261.543C192.14 261.785 192.921 262.148 193.625 262.632C194.417 263.16 195.066 263.798 195.572 264.546C196.078 265.272 196.419 266.064 196.595 266.922L191.15 268.803C190.996 267.989 190.699 267.362 190.259 266.922C189.819 266.482 189.269 266.262 188.609 266.262ZM214.398 263.721C215.19 264.557 215.795 265.536 216.213 266.658C216.631 267.758 216.84 268.968 216.84 270.288C216.84 271.608 216.631 272.829 216.213 273.951C215.795 275.051 215.19 276.019 214.398 276.855C213.584 277.669 212.616 278.296 211.494 278.736C210.394 279.176 209.195 279.396 207.897 279.396C206.599 279.396 205.389 279.176 204.267 278.736C203.167 278.296 202.21 277.669 201.396 276.855C200.582 276.019 199.966 275.051 199.548 273.951C199.13 272.829 198.921 271.608 198.921 270.288C198.921 268.968 199.13 267.758 199.548 266.658C199.966 265.536 200.582 264.557 201.396 263.721C202.21 262.907 203.167 262.28 204.267 261.84C205.389 261.4 206.599 261.18 207.897 261.18C209.195 261.18 210.394 261.4 211.494 261.84C212.616 262.28 213.584 262.907 214.398 263.721ZM207.897 266.229C207.017 266.229 206.324 266.581 205.818 267.285C205.334 267.989 205.092 268.99 205.092 270.288C205.092 271.586 205.334 272.587 205.818 273.291C206.302 273.995 206.995 274.347 207.897 274.347C208.777 274.347 209.459 273.995 209.943 273.291C210.427 272.587 210.669 271.586 210.669 270.288C210.669 268.99 210.427 267.989 209.943 267.285C209.459 266.581 208.777 266.229 207.897 266.229ZM228.903 266.724C228.243 266.724 227.704 266.955 227.286 267.417C226.89 267.879 226.692 268.495 226.692 269.265V279H220.422V261.576H226.692V263.193C227.242 262.555 227.924 262.06 228.738 261.708C229.574 261.356 230.465 261.18 231.411 261.18C232.489 261.18 233.457 261.389 234.315 261.807C235.173 262.225 235.844 262.797 236.328 263.523C237.054 262.753 237.868 262.17 238.77 261.774C239.694 261.378 240.684 261.18 241.74 261.18C243.522 261.18 244.941 261.752 245.997 262.896C247.075 264.04 247.614 265.569 247.614 267.483V279H241.344V269.232C241.344 268.44 241.168 267.824 240.816 267.384C240.486 266.944 240.002 266.724 239.364 266.724C238.704 266.724 238.165 266.955 237.747 267.417C237.351 267.879 237.153 268.495 237.153 269.265V279H230.883V269.232C230.883 268.44 230.707 267.824 230.355 267.384C230.025 266.944 229.541 266.724 228.903 266.724ZM260.239 279.396C258.897 279.396 257.665 279.187 256.543 278.769C255.421 278.329 254.453 277.691 253.639 276.855C252.825 276.041 252.198 275.073 251.758 273.951C251.34 272.807 251.131 271.575 251.131 270.255C251.131 268.979 251.351 267.791 251.791 266.691C252.231 265.569 252.869 264.59 253.705 263.754C254.541 262.918 255.509 262.28 256.609 261.84C257.731 261.4 258.919 261.18 260.173 261.18C261.471 261.18 262.648 261.4 263.704 261.84C264.782 262.28 265.695 262.918 266.443 263.754C267.169 264.568 267.719 265.525 268.093 266.625C268.467 267.725 268.654 268.924 268.654 270.222V271.641H257.203C257.379 272.565 257.742 273.28 258.292 273.786C258.842 274.292 259.524 274.545 260.338 274.545C261.108 274.545 261.746 274.38 262.252 274.05C262.758 273.698 263.121 273.203 263.341 272.565L268.489 274.116C267.895 275.744 266.85 277.031 265.354 277.977C263.858 278.923 262.153 279.396 260.239 279.396ZM260.107 265.833C259.425 265.833 258.842 266.031 258.358 266.427C257.874 266.823 257.533 267.406 257.335 268.176H262.582C262.538 267.494 262.285 266.933 261.823 266.493C261.383 266.053 260.811 265.833 260.107 265.833ZM290.324 277.548C289.708 278.142 288.971 278.593 288.113 278.901C287.277 279.187 286.32 279.33 285.242 279.33C283.438 279.33 281.964 278.846 280.82 277.878C279.698 276.91 279.137 275.667 279.137 274.149C279.137 272.499 279.753 271.201 280.985 270.255C282.239 269.287 284.076 268.682 286.496 268.44L289.73 268.011V267.747C289.73 267.175 289.565 266.746 289.235 266.46C288.905 266.174 288.41 266.031 287.75 266.031C287.134 266.031 286.65 266.174 286.298 266.46C285.946 266.746 285.715 267.186 285.605 267.78L279.566 267.087C279.94 265.305 280.875 263.875 282.371 262.797C283.889 261.719 285.77 261.18 288.014 261.18C290.522 261.18 292.458 261.73 293.822 262.83C295.186 263.908 295.868 265.437 295.868 267.417V273.588C295.868 273.984 295.956 274.259 296.132 274.413C296.33 274.545 296.66 274.578 297.122 274.512V278.967C295.538 279.297 294.152 279.33 292.964 279.066C291.776 278.824 290.896 278.318 290.324 277.548ZM286.925 274.941C287.761 274.941 288.432 274.743 288.938 274.347C289.466 273.929 289.73 273.368 289.73 272.664V271.74L287.189 272.103C286.485 272.213 285.979 272.389 285.671 272.631C285.363 272.873 285.209 273.203 285.209 273.621C285.209 274.039 285.352 274.369 285.638 274.611C285.946 274.831 286.375 274.941 286.925 274.941ZM324.889 276.525C324.229 277.471 323.415 278.186 322.447 278.67C321.501 279.154 320.445 279.396 319.279 279.396C318.355 279.396 317.486 279.22 316.672 278.868C315.88 278.494 315.242 277.988 314.758 277.35V284.709H308.488V261.576H314.758V263.193C315.22 262.577 315.847 262.093 316.639 261.741C317.453 261.367 318.333 261.18 319.279 261.18C320.445 261.18 321.501 261.422 322.447 261.906C323.415 262.39 324.229 263.105 324.889 264.051C325.461 264.865 325.901 265.811 326.209 266.889C326.517 267.945 326.671 269.078 326.671 270.288C326.671 271.498 326.517 272.642 326.209 273.72C325.901 274.776 325.461 275.711 324.889 276.525ZM317.53 266.46C316.672 266.46 315.99 266.768 315.484 267.384C315 267.978 314.758 268.814 314.758 269.892V270.717C314.758 271.773 315 272.609 315.484 273.225C315.99 273.819 316.672 274.116 317.53 274.116C318.41 274.116 319.103 273.775 319.609 273.093C320.115 272.389 320.368 271.454 320.368 270.288C320.368 269.122 320.115 268.198 319.609 267.516C319.103 266.812 318.41 266.46 317.53 266.46ZM336.562 260.19H330.259V255.306H336.562V260.19ZM330.259 261.576H336.529V279H330.259V261.576ZM340.975 255.306H347.245V279H340.975V255.306ZM351.692 255.306H357.962V279H351.692V255.306ZM372.639 277.548C372.023 278.142 371.286 278.593 370.428 278.901C369.592 279.187 368.635 279.33 367.557 279.33C365.753 279.33 364.279 278.846 363.135 277.878C362.013 276.91 361.452 275.667 361.452 274.149C361.452 272.499 362.068 271.201 363.3 270.255C364.554 269.287 366.391 268.682 368.811 268.44L372.045 268.011V267.747C372.045 267.175 371.88 266.746 371.55 266.46C371.22 266.174 370.725 266.031 370.065 266.031C369.449 266.031 368.965 266.174 368.613 266.46C368.261 266.746 368.03 267.186 367.92 267.78L361.881 267.087C362.255 265.305 363.19 263.875 364.686 262.797C366.204 261.719 368.085 261.18 370.329 261.18C372.837 261.18 374.773 261.73 376.137 262.83C377.501 263.908 378.183 265.437 378.183 267.417V273.588C378.183 273.984 378.271 274.259 378.447 274.413C378.645 274.545 378.975 274.578 379.437 274.512V278.967C377.853 279.297 376.467 279.33 375.279 279.066C374.091 278.824 373.211 278.318 372.639 277.548ZM369.24 274.941C370.076 274.941 370.747 274.743 371.253 274.347C371.781 273.929 372.045 273.368 372.045 272.664V271.74L369.504 272.103C368.8 272.213 368.294 272.389 367.986 272.631C367.678 272.873 367.524 273.203 367.524 273.621C367.524 274.039 367.667 274.369 367.953 274.611C368.261 274.831 368.69 274.941 369.24 274.941ZM393.483 261.477C393.637 261.477 393.78 261.488 393.912 261.51C394.044 261.51 394.286 261.521 394.638 261.543V267.45C394.33 267.406 394.055 267.373 393.813 267.351C393.593 267.329 393.34 267.318 393.054 267.318C391.888 267.318 390.953 267.637 390.249 268.275C389.545 268.913 389.193 269.782 389.193 270.882V279H382.923V261.576H389.193V263.622C389.633 262.962 390.227 262.445 390.975 262.071C391.745 261.675 392.581 261.477 393.483 261.477ZM420.683 263.721C421.475 264.557 422.08 265.536 422.498 266.658C422.916 267.758 423.125 268.968 423.125 270.288C423.125 271.608 422.916 272.829 422.498 273.951C422.08 275.051 421.475 276.019 420.683 276.855C419.869 277.669 418.901 278.296 417.779 278.736C416.679 279.176 415.48 279.396 414.182 279.396C412.884 279.396 411.674 279.176 410.552 278.736C409.452 278.296 408.495 277.669 407.681 276.855C406.867 276.019 406.251 275.051 405.833 273.951C405.415 272.829 405.206 271.608 405.206 270.288C405.206 268.968 405.415 267.758 405.833 266.658C406.251 265.536 406.867 264.557 407.681 263.721C408.495 262.907 409.452 262.28 410.552 261.84C411.674 261.4 412.884 261.18 414.182 261.18C415.48 261.18 416.679 261.4 417.779 261.84C418.901 262.28 419.869 262.907 420.683 263.721ZM414.182 266.229C413.302 266.229 412.609 266.581 412.103 267.285C411.619 267.989 411.377 268.99 411.377 270.288C411.377 271.586 411.619 272.587 412.103 273.291C412.587 273.995 413.28 274.347 414.182 274.347C415.062 274.347 415.744 273.995 416.228 273.291C416.712 272.587 416.954 271.586 416.954 270.288C416.954 268.99 416.712 267.989 416.228 267.285C415.744 266.581 415.062 266.229 414.182 266.229ZM434.594 255.042C434.924 255.042 435.243 255.053 435.551 255.075C435.881 255.097 436.288 255.141 436.772 255.207V259.827C436.42 259.805 436.167 259.794 436.013 259.794C435.859 259.772 435.716 259.761 435.584 259.761C434.924 259.761 434.462 259.871 434.198 260.091C433.934 260.311 433.802 260.696 433.802 261.246V261.576H436.739V266.658H433.802V279H427.532V266.658H425.42V261.576H427.532V260.949C427.532 258.925 428.104 257.44 429.248 256.494C430.392 255.526 432.174 255.042 434.594 255.042ZM454.714 279.165C452.602 279.165 451.062 278.769 450.094 277.977C449.148 277.163 448.675 275.876 448.675 274.116V266.658H446.563V261.576H448.675V256.956H454.846V261.576H458.08V266.658H454.846V272.235C454.846 272.851 454.978 273.291 455.242 273.555C455.528 273.797 456.034 273.918 456.76 273.918C456.958 273.918 457.134 273.918 457.288 273.918C457.442 273.896 457.739 273.863 458.179 273.819V278.901C457.607 278.989 457.046 279.055 456.496 279.099C455.946 279.143 455.352 279.165 454.714 279.165ZM472.447 261.477C472.601 261.477 472.744 261.488 472.876 261.51C473.008 261.51 473.25 261.521 473.602 261.543V267.45C473.294 267.406 473.019 267.373 472.777 267.351C472.557 267.329 472.304 267.318 472.018 267.318C470.852 267.318 469.917 267.637 469.213 268.275C468.509 268.913 468.157 269.782 468.157 270.882V279H461.887V261.576H468.157V263.622C468.597 262.962 469.191 262.445 469.939 262.071C470.709 261.675 471.545 261.477 472.447 261.477ZM487.707 261.576H493.977V279H487.707V277.383C487.135 278.021 486.442 278.516 485.628 278.868C484.836 279.22 483.978 279.396 483.054 279.396C481.272 279.396 479.831 278.824 478.731 277.68C477.653 276.514 477.114 274.985 477.114 273.093V261.576H483.384V271.575C483.384 272.345 483.56 272.939 483.912 273.357C484.264 273.775 484.77 273.984 485.43 273.984C486.112 273.984 486.662 273.764 487.08 273.324C487.498 272.862 487.707 272.246 487.707 271.476V261.576ZM505.036 279.363C503.496 279.363 501.956 279.143 500.416 278.703C498.898 278.263 497.732 277.691 496.918 276.987L499.261 272.73C500.075 273.368 501.054 273.885 502.198 274.281C503.342 274.677 504.398 274.875 505.366 274.875C506.026 274.875 506.532 274.798 506.884 274.644C507.236 274.468 507.412 274.215 507.412 273.885C507.412 273.599 507.302 273.39 507.082 273.258C506.862 273.104 506.433 272.961 505.795 272.829C505.553 272.785 505.168 272.719 504.64 272.631C504.112 272.543 503.793 272.488 503.683 272.466C502.605 272.268 501.758 272.07 501.142 271.872C500.526 271.652 499.998 271.399 499.558 271.113C498.942 270.695 498.48 270.178 498.172 269.562C497.864 268.924 497.71 268.176 497.71 267.318C497.71 265.47 498.447 263.985 499.921 262.863C501.395 261.741 503.298 261.18 505.63 261.18C507.126 261.18 508.556 261.4 509.92 261.84C511.284 262.28 512.406 262.874 513.286 263.622L510.646 267.45C509.898 266.878 509.095 266.438 508.237 266.13C507.401 265.8 506.565 265.635 505.729 265.635C505.179 265.635 504.75 265.723 504.442 265.899C504.156 266.053 504.013 266.273 504.013 266.559C504.013 266.801 504.101 266.988 504.277 267.12C504.453 267.252 504.783 267.373 505.267 267.483C505.355 267.505 505.542 267.538 505.828 267.582C506.114 267.626 506.488 267.692 506.95 267.78C508.116 267.978 509.04 268.187 509.722 268.407C510.404 268.627 510.976 268.891 511.438 269.199C512.164 269.639 512.703 270.189 513.055 270.849C513.407 271.487 513.583 272.257 513.583 273.159C513.583 275.073 512.802 276.591 511.24 277.713C509.678 278.813 507.61 279.363 505.036 279.363ZM523.717 279.165C521.605 279.165 520.065 278.769 519.097 277.977C518.151 277.163 517.678 275.876 517.678 274.116V266.658H515.566V261.576H517.678V256.956H523.849V261.576H527.083V266.658H523.849V272.235C523.849 272.851 523.981 273.291 524.245 273.555C524.531 273.797 525.037 273.918 525.763 273.918C525.961 273.918 526.137 273.918 526.291 273.918C526.445 273.896 526.742 273.863 527.182 273.819V278.901C526.61 278.989 526.049 279.055 525.499 279.099C524.949 279.143 524.355 279.165 523.717 279.165ZM553.389 263.721C554.181 264.557 554.786 265.536 555.204 266.658C555.622 267.758 555.831 268.968 555.831 270.288C555.831 271.608 555.622 272.829 555.204 273.951C554.786 275.051 554.181 276.019 553.389 276.855C552.575 277.669 551.607 278.296 550.485 278.736C549.385 279.176 548.186 279.396 546.888 279.396C545.59 279.396 544.38 279.176 543.258 278.736C542.158 278.296 541.201 277.669 540.387 276.855C539.573 276.019 538.957 275.051 538.539 273.951C538.121 272.829 537.912 271.608 537.912 270.288C537.912 268.968 538.121 267.758 538.539 266.658C538.957 265.536 539.573 264.557 540.387 263.721C541.201 262.907 542.158 262.28 543.258 261.84C544.38 261.4 545.59 261.18 546.888 261.18C548.186 261.18 549.385 261.4 550.485 261.84C551.607 262.28 552.575 262.907 553.389 263.721ZM546.888 266.229C546.008 266.229 545.315 266.581 544.809 267.285C544.325 267.989 544.083 268.99 544.083 270.288C544.083 271.586 544.325 272.587 544.809 273.291C545.293 273.995 545.986 274.347 546.888 274.347C547.768 274.347 548.45 273.995 548.934 273.291C549.418 272.587 549.66 271.586 549.66 270.288C549.66 268.99 549.418 267.989 548.934 267.285C548.45 266.581 547.768 266.229 546.888 266.229ZM565.683 279H559.413V261.576H565.683V263.193C566.233 262.577 566.926 262.093 567.762 261.741C568.62 261.367 569.511 261.18 570.435 261.18C572.195 261.18 573.603 261.752 574.659 262.896C575.737 264.04 576.276 265.569 576.276 267.483V279H570.006V269.232C570.006 268.44 569.83 267.824 569.478 267.384C569.126 266.944 568.631 266.724 567.993 266.724C567.311 266.724 566.75 266.955 566.31 267.417C565.892 267.879 565.683 268.495 565.683 269.265V279ZM596.667 266.262C595.765 266.262 595.061 266.614 594.555 267.318C594.071 268.022 593.829 269.012 593.829 270.288C593.829 271.564 594.071 272.554 594.555 273.258C595.061 273.962 595.765 274.314 596.667 274.314C597.327 274.314 597.877 274.094 598.317 273.654C598.757 273.192 599.054 272.554 599.208 271.74L604.686 273.588C604.51 274.446 604.158 275.249 603.63 275.997C603.124 276.745 602.486 277.383 601.716 277.911C601.012 278.395 600.22 278.758 599.34 279C598.482 279.264 597.569 279.396 596.601 279.396C595.303 279.396 594.093 279.176 592.971 278.736C591.871 278.296 590.925 277.658 590.133 276.822C589.319 276.008 588.703 275.04 588.285 273.918C587.867 272.796 587.658 271.586 587.658 270.288C587.658 268.99 587.867 267.78 588.285 266.658C588.703 265.536 589.319 264.568 590.133 263.754C590.925 262.918 591.871 262.28 592.971 261.84C594.093 261.4 595.303 261.18 596.601 261.18C597.569 261.18 598.482 261.301 599.34 261.543C600.198 261.785 600.979 262.148 601.683 262.632C602.475 263.16 603.124 263.798 603.63 264.546C604.136 265.272 604.477 266.064 604.653 266.922L599.208 268.803C599.054 267.989 598.757 267.362 598.317 266.922C597.877 266.482 597.327 266.262 596.667 266.262ZM614.108 279H607.838V255.306H614.108V263.193C614.658 262.577 615.351 262.093 616.187 261.741C617.045 261.367 617.936 261.18 618.86 261.18C620.62 261.18 622.028 261.752 623.084 262.896C624.162 264.04 624.701 265.569 624.701 267.483V279H618.431V269.232C618.431 268.44 618.255 267.824 617.903 267.384C617.551 266.944 617.056 266.724 616.418 266.724C615.736 266.724 615.175 266.955 614.735 267.417C614.317 267.879 614.108 268.495 614.108 269.265V279ZM639.29 277.548C638.674 278.142 637.937 278.593 637.079 278.901C636.243 279.187 635.286 279.33 634.208 279.33C632.404 279.33 630.93 278.846 629.786 277.878C628.664 276.91 628.103 275.667 628.103 274.149C628.103 272.499 628.719 271.201 629.951 270.255C631.205 269.287 633.042 268.682 635.462 268.44L638.696 268.011V267.747C638.696 267.175 638.531 266.746 638.201 266.46C637.871 266.174 637.376 266.031 636.716 266.031C636.1 266.031 635.616 266.174 635.264 266.46C634.912 266.746 634.681 267.186 634.571 267.78L628.532 267.087C628.906 265.305 629.841 263.875 631.337 262.797C632.855 261.719 634.736 261.18 636.98 261.18C639.488 261.18 641.424 261.73 642.788 262.83C644.152 263.908 644.834 265.437 644.834 267.417V273.588C644.834 273.984 644.922 274.259 645.098 274.413C645.296 274.545 645.626 274.578 646.088 274.512V278.967C644.504 279.297 643.118 279.33 641.93 279.066C640.742 278.824 639.862 278.318 639.29 277.548ZM635.891 274.941C636.727 274.941 637.398 274.743 637.904 274.347C638.432 273.929 638.696 273.368 638.696 272.664V271.74L636.155 272.103C635.451 272.213 634.945 272.389 634.637 272.631C634.329 272.873 634.175 273.203 634.175 273.621C634.175 274.039 634.318 274.369 634.604 274.611C634.912 274.831 635.341 274.941 635.891 274.941ZM655.877 260.19H649.574V255.306H655.877V260.19ZM649.574 261.576H655.844V279H649.574V261.576ZM666.561 279H660.291V261.576H666.561V263.193C667.111 262.577 667.804 262.093 668.64 261.741C669.498 261.367 670.389 261.18 671.313 261.18C673.073 261.18 674.481 261.752 675.537 262.896C676.615 264.04 677.154 265.569 677.154 267.483V279H670.884V269.232C670.884 268.44 670.708 267.824 670.356 267.384C670.004 266.944 669.509 266.724 668.871 266.724C668.189 266.724 667.628 266.955 667.188 267.417C666.77 267.879 666.561 268.495 666.561 269.265V279ZM688.147 279H681.118V272.268H688.147V279Z" fill="url(#paint0_linear_56_4771)"/>
<line opacity="0.35" x1="274.138" y1="473.643" x2="315.496" y2="721.387" stroke="#FF009B" stroke-width="4.33434" stroke-dasharray="2.89 2.89"/>
<line opacity="0.35" x1="742.343" y1="705.701" x2="604.343" y2="814.701" stroke="#FF009B" stroke-width="4.33434" stroke-dasharray="2.89 2.89"/>
<line opacity="0.35" x1="739.132" y1="705.099" x2="639.132" y2="535.099" stroke="#FF009B" stroke-width="4.33434" stroke-dasharray="2.89 2.89"/>
<line opacity="0.35" x1="472.367" y1="504.864" x2="641.367" y2="533.864" stroke="#FF009B" stroke-width="4.33434" stroke-dasharray="2.89 2.89"/>
<line opacity="0.35" x1="731.66" y1="429.394" x2="642.66" y2="535.394" stroke="#FF009B" stroke-width="4.33434" stroke-dasharray="2.89 2.89"/>
<line opacity="0.35" x1="580.117" y1="647.164" x2="413.117" y2="656.164" stroke="#FF009B" stroke-width="4.33434" stroke-dasharray="2.89 2.89"/>
<line opacity="0.35" x1="740.254" y1="706.035" x2="579.254" y2="647.035" stroke="#FF009B" stroke-width="4.33434" stroke-dasharray="2.89 2.89"/>
<line opacity="0.35" x1="415.491" y1="603.659" x2="470.109" y2="505.943" stroke="#FF009B" stroke-width="4.33434" stroke-dasharray="2.89 2.89"/>
<line opacity="0.35" x1="473.719" y1="505.68" x2="579.719" y2="643.68" stroke="#FF009B" stroke-width="4.33434" stroke-dasharray="2.89 2.89"/>
<line opacity="0.35" x1="60.7312" y1="695.85" x2="412.731" y2="651.85" stroke="#FF009B" stroke-width="4.33434" stroke-dasharray="2.89 2.89"/>
<line opacity="0.35" x1="190.655" y1="827.301" x2="411.655" y2="652.301" stroke="#FF009B" stroke-width="4.33434" stroke-dasharray="2.89 2.89"/>
<line opacity="0.35" x1="430.84" y1="847.179" x2="414.84" y2="654.179" stroke="#FF009B" stroke-width="4.33434" stroke-dasharray="2.89 2.89"/>
<line opacity="0.35" x1="431.248" y1="845.725" x2="578.248" y2="643.725" stroke="#FF009B" stroke-width="4.33434" stroke-dasharray="2.89 2.89"/>
<line opacity="0.35" x1="134.822" y1="445.827" x2="219.822" y2="577.827" stroke="#FF009B" stroke-width="4.33434" stroke-dasharray="2.89 2.89"/>
<line opacity="0.35" x1="218.342" y1="576.702" x2="62.3418" y2="699.702" stroke="#FF009B" stroke-width="4.33434" stroke-dasharray="2.89 2.89"/>
<line opacity="0.35" x1="372.476" y1="411.414" x2="473.476" y2="505.414" stroke="#FF009B" stroke-width="4.33434" stroke-dasharray="2.89 2.89"/>
<circle cx="217.871" cy="574.871" r="17.5865" transform="rotate(135 217.871 574.871)" fill="#D6AEFF"/>
<circle cx="602.871" cy="812.871" r="17.5865" transform="rotate(135 602.871 812.871)" fill="#D6AEFF"/>
<circle cx="729.871" cy="427.871" r="17.5865" transform="rotate(135 729.871 427.871)" fill="#F8CCFF"/>
<circle cx="370.871" cy="412.871" r="17.5865" transform="rotate(135 370.871 412.871)" fill="url(#paint1_linear_56_4771)"/>
<circle cx="579.871" cy="644.871" r="17.5865" transform="rotate(135 579.871 644.871)" fill="#CF58E2"/>
<circle cx="191.871" cy="828.871" r="17.5865" transform="rotate(135 191.871 828.871)" fill="url(#paint2_linear_56_4771)"/>
<circle cx="132.871" cy="446.871" r="17.5865" transform="rotate(135 132.871 446.871)" fill="#710BC2"/>
<circle cx="60.9651" cy="697.965" r="25.4308" transform="rotate(135 60.9651 697.965)" fill="url(#paint3_linear_56_4771)"/>
<circle cx="472.241" cy="507.242" r="33.4047" transform="rotate(135 472.241 507.242)" fill="#9B89FF"/>
<circle cx="271.965" cy="473.965" r="25.4308" transform="rotate(135 271.965 473.965)" fill="url(#paint4_linear_56_4771)"/>
<circle cx="640.965" cy="535.965" r="25.4308" transform="rotate(135 640.965 535.965)" fill="url(#paint5_linear_56_4771)"/>
<circle cx="741.198" cy="704.197" r="25.5951" transform="rotate(135 741.198 704.197)" fill="#9FABFF"/>
<circle cx="432.503" cy="846.504" r="34.2966" transform="rotate(135 432.503 846.504)" fill="url(#paint6_linear_56_4771)"/>
<path d="M246.24 138H220.704V69.072H246.24C251.616 69.072 256.48 69.84 260.832 71.376C265.248 72.912 268.992 75.152 272.064 78.096C275.264 81.168 277.696 84.88 279.36 89.232C281.024 93.52 281.856 98.288 281.856 103.536C281.856 108.784 281.024 113.584 279.36 117.936C277.696 122.224 275.264 125.904 272.064 128.976C268.992 131.92 265.248 134.16 260.832 135.696C256.48 137.232 251.616 138 246.24 138ZM239.04 84.912V122.16H246.24C251.616 122.16 255.776 120.528 258.72 117.264C261.728 113.936 263.232 109.36 263.232 103.536C263.232 97.648 261.728 93.072 258.72 89.808C255.776 86.544 251.616 84.912 246.24 84.912H239.04ZM278.954 138L303.818 69.072H325.514L350.378 138H331.274L326.858 125.52H301.898L297.578 138H278.954ZM321.578 110.448L314.378 89.904L307.178 110.448H321.578ZM356.588 128.784C353.644 125.584 351.372 121.84 349.772 117.552C348.236 113.2 347.468 108.528 347.468 103.536C347.468 98.544 348.236 93.904 349.772 89.616C351.372 85.264 353.644 81.488 356.588 78.288C359.66 74.896 363.276 72.336 367.436 70.608C371.66 68.816 376.236 67.92 381.164 67.92C386.092 67.92 390.668 68.816 394.892 70.608C399.116 72.336 402.764 74.864 405.836 78.192C408.78 81.456 411.02 85.264 412.556 89.616C414.156 93.904 414.956 98.544 414.956 103.536C414.956 108.528 414.156 113.2 412.556 117.552C411.02 121.84 408.78 125.616 405.836 128.88C402.764 132.208 399.116 134.768 394.892 136.56C390.668 138.288 386.092 139.152 381.164 139.152C376.236 139.152 371.66 138.288 367.436 136.56C363.276 134.768 359.66 132.176 356.588 128.784ZM381.164 122.832C385.644 122.832 389.228 121.104 391.916 117.648C394.668 114.128 396.044 109.424 396.044 103.536C396.044 97.648 394.668 92.976 391.916 89.52C389.228 86 385.644 84.24 381.164 84.24C376.684 84.24 373.1 86 370.412 89.52C367.724 92.976 366.38 97.648 366.38 103.536C366.38 109.424 367.724 114.128 370.412 117.648C373.1 121.104 376.684 122.832 381.164 122.832ZM439.12 83.28H420.784V69.072H439.12V83.28ZM420.784 87.312H439.024V138H420.784V87.312ZM466.748 139.056C462.268 139.056 457.788 138.416 453.308 137.136C448.892 135.856 445.5 134.192 443.132 132.144L449.948 119.76C452.316 121.616 455.164 123.12 458.492 124.272C461.82 125.424 464.892 126 467.708 126C469.628 126 471.1 125.776 472.124 125.328C473.148 124.816 473.66 124.08 473.66 123.12C473.66 122.288 473.34 121.68 472.7 121.296C472.06 120.848 470.812 120.432 468.956 120.048C468.252 119.92 467.132 119.728 465.596 119.472C464.06 119.216 463.132 119.056 462.812 118.992C459.676 118.416 457.212 117.84 455.42 117.264C453.628 116.624 452.092 115.888 450.812 115.056C449.02 113.84 447.676 112.336 446.78 110.544C445.884 108.688 445.436 106.512 445.436 104.016C445.436 98.64 447.58 94.32 451.868 91.056C456.156 87.792 461.692 86.16 468.476 86.16C472.828 86.16 476.988 86.8 480.956 88.08C484.924 89.36 488.188 91.088 490.748 93.264L483.068 104.4C480.892 102.736 478.556 101.456 476.06 100.56C473.628 99.6 471.196 99.12 468.764 99.12C467.164 99.12 465.916 99.376 465.02 99.888C464.188 100.336 463.772 100.976 463.772 101.808C463.772 102.512 464.028 103.056 464.54 103.44C465.052 103.824 466.012 104.176 467.42 104.496C467.676 104.56 468.22 104.656 469.052 104.784C469.884 104.912 470.972 105.104 472.316 105.36C475.708 105.936 478.396 106.544 480.38 107.184C482.364 107.824 484.028 108.592 485.372 109.488C487.484 110.768 489.052 112.368 490.076 114.288C491.1 116.144 491.612 118.384 491.612 121.008C491.612 126.576 489.34 130.992 484.796 134.256C480.252 137.456 474.236 139.056 466.748 139.056ZM521.569 102.288C519.649 102.288 518.081 102.96 516.865 104.304C515.713 105.648 515.137 107.44 515.137 109.68V138H496.897V87.312H515.137V92.016C516.737 90.16 518.721 88.72 521.089 87.696C523.521 86.672 526.113 86.16 528.865 86.16C532.001 86.16 534.817 86.768 537.313 87.984C539.809 89.2 541.761 90.864 543.169 92.976C545.281 90.736 547.649 89.04 550.273 87.888C552.961 86.736 555.841 86.16 558.913 86.16C564.097 86.16 568.225 87.824 571.297 91.152C574.433 94.48 576.001 98.928 576.001 104.496V138H557.761V109.584C557.761 107.28 557.249 105.488 556.225 104.208C555.265 102.928 553.857 102.288 552.001 102.288C550.081 102.288 548.513 102.96 547.297 104.304C546.145 105.648 545.569 107.44 545.569 109.68V138H527.329V109.584C527.329 107.28 526.817 105.488 525.793 104.208C524.833 102.928 523.425 102.288 521.569 102.288Z" fill="#EDEDED"/>
<circle cx="601.422" cy="82.0784" r="47.674" transform="rotate(135 601.422 82.0784)" fill="url(#paint7_linear_56_4771)" fill-opacity="0.21"/>
<path d="M613.856 70.0216L613.856 70.0213C613.714 68.8841 613.421 68.3561 613.023 68.089C612.604 67.8072 611.973 67.7446 610.961 67.7977C608.838 67.9105 606.758 68.3625 604.552 68.8417C604.208 68.9164 603.861 68.9917 603.511 69.0666C603.82 69.2595 604.1 69.4417 604.351 69.6482L604.357 69.653L604.357 69.6531C604.598 69.8599 604.844 70.1356 604.926 70.4813C605.015 70.8589 604.891 71.2336 604.567 71.5753C603.676 72.53 603.101 73.6933 602.499 74.9106C602.47 74.9674 602.442 75.0243 602.414 75.0813C601.948 76.0256 601.494 76.9813 601.039 77.9394C599.909 80.3186 598.771 82.7131 597.425 84.9879C594.167 90.5444 589.965 95.1868 583.971 97.9074C583.863 97.957 583.746 98.0222 583.61 98.0979C583.587 98.1111 583.562 98.1248 583.537 98.1387C583.378 98.2271 583.197 98.3255 583.014 98.3968C582.833 98.4672 582.618 98.5247 582.396 98.5014C582.157 98.4762 581.942 98.3606 581.777 98.1459M613.856 70.0216L582.053 97.9315M613.856 70.0216C613.869 70.1291 613.884 70.2313 613.898 70.3302C613.93 70.5625 613.961 70.7768 613.97 70.9999M613.856 70.0216L614.203 69.978C614.215 70.0733 614.228 70.1687 614.242 70.2641C614.276 70.5041 614.31 70.7443 614.32 70.9854M581.777 98.1459C581.776 98.1457 581.776 98.1455 581.776 98.1452L582.053 97.9315M581.777 98.1459C581.777 98.1462 581.777 98.1464 581.777 98.1466L582.053 97.9315M581.777 98.1459C581.6 97.9188 581.635 97.6647 581.721 97.4798C581.801 97.3093 581.939 97.1558 582.07 97.0305C582.255 96.8531 582.5 96.6665 582.696 96.5177C582.773 96.4591 582.842 96.4064 582.897 96.3623M582.053 97.9315C581.816 97.6269 582.423 97.1651 582.886 96.8126C582.97 96.7494 583.048 96.6898 583.116 96.6352M582.897 96.3623L583.116 96.6352M582.897 96.3623C582.897 96.3622 582.897 96.3621 582.897 96.3621L583.116 96.6352M582.897 96.3623C587.558 92.6168 591.152 87.9619 594.091 82.7587C596.2 79.0173 597.985 75.1632 598.889 70.9527L598.889 70.9522C598.957 70.6392 598.992 70.4198 598.995 70.2648C598.998 70.1479 598.982 70.1037 598.976 70.0924C598.965 70.0863 598.927 70.0707 598.831 70.0654C598.688 70.0576 598.48 70.0761 598.178 70.122C598.107 70.1333 598.035 70.1446 597.964 70.1559C596.689 70.3577 595.422 70.5582 594.186 70.8745L594.186 70.8746C592.288 71.3583 590.651 70.8276 589.157 69.8124C589.14 69.8007 589.12 69.7877 589.098 69.7733C588.984 69.699 588.817 69.5897 588.688 69.4605C588.522 69.2929 588.36 69.0323 588.433 68.6873C588.509 68.3241 588.756 68.134 589.007 68.0421C589.202 67.9703 589.427 67.9495 589.581 67.9352C589.602 67.9333 589.621 67.9315 589.639 67.9297C589.64 67.9297 589.64 67.9297 589.64 67.9296L589.675 68.2779L583.116 96.6352M614.32 70.9854L613.97 70.9988C613.97 70.9992 613.97 70.9995 613.97 70.9999M614.32 70.9854L613.97 71.0006C613.97 71.0004 613.97 71.0001 613.97 70.9999M614.32 70.9854L613.97 70.9999M613.97 70.9999C614.219 77.4929 613.045 83.7734 611.06 89.9386L611.059 89.9389C610.715 91.0128 610.315 92.0205 609.628 92.8681L613.97 70.9999ZM605.464 92.9589L605.466 92.96C606.224 93.3338 607.039 93.5728 607.877 93.6668C608.262 93.7092 608.576 93.6516 608.85 93.5212C609.127 93.389 609.381 93.1723 609.628 92.8682L605.464 92.9589ZM605.464 92.9589C604.779 92.627 604.088 92.297 603.387 91.987L603.386 91.9864M605.464 92.9589L603.386 91.9864M603.386 91.9864C603.38 91.984 603.373 91.9805 603.364 91.9764C603.304 91.9491 603.179 91.8915 603.053 91.8717C602.87 91.8431 602.66 91.8833 602.486 92.0652C602.15 92.4168 602.296 92.8501 602.442 93.0836L602.442 93.0836M603.386 91.9864L602.442 93.0836M602.442 93.0836L602.446 93.0892M602.442 93.0836L602.446 93.0892M602.446 93.0892C602.512 93.1916 602.579 93.2954 602.647 93.4001C602.912 93.8103 603.185 94.2331 603.485 94.6325L603.486 94.6333M602.446 93.0892L603.486 94.6333M603.486 94.6333C604.691 96.2262 605.759 97.8196 606.217 99.7477L606.217 99.748M603.486 94.6333L606.217 99.748M606.217 99.748C606.379 100.431 606.666 100.967 607.176 101.213C607.682 101.458 608.286 101.354 608.932 101.069L608.932 101.069M606.217 99.748L608.932 101.069M608.932 101.069C610.133 100.538 611.083 99.6848 611.932 98.7632L611.933 98.7623M608.932 101.069L611.933 98.7623M611.933 98.7623C614.022 96.4794 614.859 93.6309 615.556 90.8095L615.556 90.8093M611.933 98.7623L615.556 90.8093M615.556 90.8093C616.499 86.9854 617.119 83.0937 617.736 79.2191M615.556 90.8093L617.736 79.2191M617.736 79.2191C617.985 77.6547 618.234 76.0931 618.503 74.5399M617.736 79.2191L618.503 74.5399M618.503 74.5399C618.572 74.1439 618.634 73.7504 618.695 73.3604M618.503 74.5399L618.695 73.3604M618.695 73.3604C618.976 71.5659 619.246 69.8438 620.142 68.2759M618.695 73.3604L620.142 68.2759M620.142 68.2759C620.389 67.8466 620.401 67.4215 620.257 67.0386C620.119 66.6734 619.847 66.3694 619.563 66.1294C619.563 66.1293 619.563 66.1292 619.563 66.1291L619.337 66.3963L620.142 68.2759ZM598.98 70.0948C598.98 70.0948 598.979 70.0946 598.979 70.0939L598.98 70.0948Z" fill="#FF009B" stroke="#FF009B" stroke-width="0.7"/>
<path d="M586.765 38.8405L588.83 38.1606C628.42 25.1277 662.769 68.5228 640.995 104.063V104.063" stroke="url(#paint8_linear_56_4771)" stroke-width="2.19852"/>
<path d="M586.765 38.8405L588.83 38.1606C628.42 25.1277 662.769 68.5228 640.995 104.063V104.063" stroke="url(#paint9_linear_56_4771)" stroke-opacity="0.2" stroke-width="2.19852"/>
<circle cx="413.422" cy="654.078" r="47.674" transform="rotate(135 413.422 654.078)" fill="black"/>
<circle cx="413.421" cy="654.078" r="47.674" transform="rotate(135 413.421 654.078)" fill="url(#paint10_linear_56_4771)" fill-opacity="0.21"/>
<path d="M425.856 642.022L425.856 642.021C425.714 640.884 425.421 640.356 425.023 640.089C424.604 639.807 423.973 639.745 422.961 639.798C420.838 639.91 418.758 640.363 416.552 640.842C416.208 640.916 415.861 640.992 415.511 641.067C415.82 641.26 416.1 641.442 416.351 641.648L416.357 641.653L416.357 641.653C416.598 641.86 416.844 642.136 416.926 642.481C417.015 642.859 416.891 643.234 416.567 643.575C415.676 644.53 415.101 645.693 414.499 646.911C414.47 646.967 414.442 647.024 414.414 647.081C413.948 648.026 413.494 648.981 413.039 649.939C411.909 652.319 410.771 654.713 409.425 656.988C406.167 662.544 401.965 667.187 395.971 669.907C395.863 669.957 395.746 670.022 395.61 670.098C395.587 670.111 395.562 670.125 395.537 670.139C395.378 670.227 395.197 670.325 395.014 670.397C394.833 670.467 394.618 670.525 394.396 670.501C394.157 670.476 393.942 670.361 393.777 670.146M425.856 642.022L394.053 669.932M425.856 642.022C425.869 642.129 425.884 642.231 425.898 642.33C425.93 642.563 425.961 642.777 425.97 643M425.856 642.022L426.203 641.978C426.215 642.073 426.228 642.169 426.242 642.264C426.276 642.504 426.31 642.744 426.32 642.985M393.777 670.146C393.776 670.146 393.776 670.145 393.776 670.145L394.053 669.932M393.777 670.146C393.777 670.146 393.777 670.146 393.777 670.147L394.053 669.932M393.777 670.146C393.6 669.919 393.635 669.665 393.721 669.48C393.801 669.309 393.939 669.156 394.07 669.031C394.255 668.853 394.5 668.667 394.696 668.518C394.773 668.459 394.842 668.406 394.897 668.362M394.053 669.932C393.816 669.627 394.423 669.165 394.886 668.813C394.97 668.749 395.048 668.69 395.116 668.635M394.897 668.362L395.116 668.635M394.897 668.362C394.897 668.362 394.897 668.362 394.897 668.362L395.116 668.635M394.897 668.362C399.558 664.617 403.152 659.962 406.091 654.759C408.2 651.017 409.985 647.163 410.889 642.953L410.889 642.952C410.957 642.639 410.992 642.42 410.995 642.265C410.998 642.148 410.982 642.104 410.976 642.092C410.965 642.086 410.927 642.071 410.831 642.065C410.688 642.058 410.48 642.076 410.178 642.122C410.107 642.133 410.035 642.145 409.964 642.156C408.689 642.358 407.422 642.558 406.186 642.874L406.186 642.875C404.288 643.358 402.651 642.828 401.157 641.812C401.14 641.801 401.12 641.788 401.098 641.773C400.984 641.699 400.817 641.59 400.688 641.46C400.522 641.293 400.36 641.032 400.433 640.687C400.509 640.324 400.756 640.134 401.007 640.042C401.202 639.97 401.427 639.95 401.581 639.935C401.602 639.933 401.621 639.932 401.639 639.93C401.64 639.93 401.64 639.93 401.64 639.93L401.675 640.278L395.116 668.635M426.32 642.985L425.97 642.999C425.97 642.999 425.97 643 425.97 643M426.32 642.985L425.97 643.001C425.97 643 425.97 643 425.97 643M426.32 642.985L425.97 643M425.97 643C426.219 649.493 425.045 655.773 423.06 661.939L423.059 661.939C422.715 663.013 422.315 664.021 421.628 664.868L425.97 643ZM417.464 664.959L417.466 664.96C418.224 665.334 419.039 665.573 419.877 665.667C420.262 665.709 420.576 665.652 420.85 665.521C421.127 665.389 421.381 665.172 421.628 664.868L417.464 664.959ZM417.464 664.959C416.779 664.627 416.088 664.297 415.387 663.987L415.386 663.986M417.464 664.959L415.386 663.986M415.386 663.986C415.38 663.984 415.373 663.981 415.364 663.976C415.304 663.949 415.179 663.891 415.053 663.872C414.87 663.843 414.66 663.883 414.486 664.065C414.15 664.417 414.296 664.85 414.442 665.084L414.442 665.084M415.386 663.986L414.442 665.084M414.442 665.084L414.446 665.089M414.442 665.084L414.446 665.089M414.446 665.089C414.512 665.192 414.579 665.295 414.647 665.4C414.912 665.81 415.185 666.233 415.485 666.632L415.486 666.633M414.446 665.089L415.486 666.633M415.486 666.633C416.691 668.226 417.759 669.82 418.217 671.748L418.217 671.748M415.486 666.633L418.217 671.748M418.217 671.748C418.379 672.431 418.666 672.967 419.176 673.213C419.682 673.458 420.286 673.354 420.932 673.069L420.932 673.069M418.217 671.748L420.932 673.069M420.932 673.069C422.133 672.538 423.083 671.685 423.932 670.763L423.933 670.762M420.932 673.069L423.933 670.762M423.933 670.762C426.022 668.479 426.859 665.631 427.556 662.81L427.556 662.809M423.933 670.762L427.556 662.809M427.556 662.809C428.499 658.985 429.119 655.094 429.736 651.219M427.556 662.809L429.736 651.219M429.736 651.219C429.985 649.655 430.234 648.093 430.503 646.54M429.736 651.219L430.503 646.54M430.503 646.54C430.572 646.144 430.634 645.75 430.695 645.36M430.503 646.54L430.695 645.36M430.695 645.36C430.976 643.566 431.246 641.844 432.142 640.276M430.695 645.36L432.142 640.276M432.142 640.276C432.389 639.847 432.401 639.421 432.257 639.039C432.119 638.673 431.847 638.369 431.563 638.129C431.563 638.129 431.563 638.129 431.563 638.129L431.337 638.396L432.142 640.276ZM410.98 642.095C410.98 642.095 410.979 642.095 410.979 642.094L410.98 642.095Z" fill="#FF009B" stroke="#FF009B" stroke-width="0.7"/>
<path d="M398.765 610.84L400.83 610.161C440.42 597.128 474.769 640.523 452.995 676.063V676.063" stroke="url(#paint11_linear_56_4771)" stroke-width="2.19852"/>
<path d="M398.765 610.84L400.83 610.161C440.42 597.128 474.769 640.523 452.995 676.063V676.063" stroke="url(#paint12_linear_56_4771)" stroke-opacity="0.2" stroke-width="2.19852"/>
<defs>
<linearGradient id="paint0_linear_56_4771" x1="638.994" y1="126.261" x2="573.513" y2="385.456" gradientUnits="userSpaceOnUse">
<stop stop-color="white"/>
<stop offset="1" stop-color="#F63AAC"/>
</linearGradient>
<linearGradient id="paint1_linear_56_4771" x1="355.066" y1="425.706" x2="377.619" y2="391.002" gradientUnits="userSpaceOnUse">
<stop offset="0.110858" stop-color="#3228BA"/>
<stop offset="0.894672" stop-color="#F63AAC"/>
</linearGradient>
<linearGradient id="paint2_linear_56_4771" x1="191.871" y1="811.285" x2="191.871" y2="846.458" gradientUnits="userSpaceOnUse">
<stop stop-color="#8B0054"/>
<stop offset="1" stop-color="#64003D"/>
</linearGradient>
<linearGradient id="paint3_linear_56_4771" x1="60.9651" y1="672.534" x2="60.9651" y2="723.396" gradientUnits="userSpaceOnUse">
<stop stop-color="#710BC2"/>
<stop offset="1" stop-color="#B31374"/>
</linearGradient>
<linearGradient id="paint4_linear_56_4771" x1="271.965" y1="448.534" x2="271.965" y2="499.396" gradientUnits="userSpaceOnUse">
<stop stop-color="#BC0072"/>
<stop offset="1" stop-color="#FF009B"/>
</linearGradient>
<linearGradient id="paint5_linear_56_4771" x1="640.965" y1="510.534" x2="640.965" y2="561.396" gradientUnits="userSpaceOnUse">
<stop stop-color="#FF91D4"/>
<stop offset="1" stop-color="#FF46B6"/>
</linearGradient>
<linearGradient id="paint6_linear_56_4771" x1="432.503" y1="812.207" x2="432.503" y2="880.801" gradientUnits="userSpaceOnUse">
<stop stop-color="#FF91D4"/>
<stop offset="1" stop-color="#FF46B6"/>
</linearGradient>
<linearGradient id="paint7_linear_56_4771" x1="556.857" y1="87.2603" x2="594.167" y2="89.3331" gradientUnits="userSpaceOnUse">
<stop stop-color="white"/>
<stop offset="0.606923" stop-color="white" stop-opacity="0"/>
</linearGradient>
<linearGradient id="paint8_linear_56_4771" x1="588.963" y1="37.3748" x2="638.063" y2="101.865" gradientUnits="userSpaceOnUse">
<stop offset="0.130208" stop-color="white" stop-opacity="0"/>
<stop offset="0.515625" stop-color="white"/>
<stop offset="0.828125" stop-color="white" stop-opacity="0"/>
</linearGradient>
<linearGradient id="paint9_linear_56_4771" x1="645.392" y1="40.3061" x2="626.338" y2="59.36" gradientUnits="userSpaceOnUse">
<stop stop-color="white"/>
<stop offset="1" stop-color="white" stop-opacity="0"/>
</linearGradient>
<linearGradient id="paint10_linear_56_4771" x1="368.856" y1="659.26" x2="406.166" y2="661.333" gradientUnits="userSpaceOnUse">
<stop stop-color="white"/>
<stop offset="0.606923" stop-color="white" stop-opacity="0"/>
</linearGradient>
<linearGradient id="paint11_linear_56_4771" x1="400.963" y1="609.375" x2="450.063" y2="673.865" gradientUnits="userSpaceOnUse">
<stop offset="0.130208" stop-color="white" stop-opacity="0"/>
<stop offset="0.515625" stop-color="white"/>
<stop offset="0.828125" stop-color="white" stop-opacity="0"/>
</linearGradient>
<linearGradient id="paint12_linear_56_4771" x1="457.392" y1="612.306" x2="438.338" y2="631.36" gradientUnits="userSpaceOnUse">
<stop stop-color="white"/>
<stop offset="1" stop-color="white" stop-opacity="0"/>
</linearGradient>
</defs>
</svg>
